<?xml version="1.0" encoding="UTF-8" standalone="no"?>
<!DOCTYPE svg PUBLIC "-//W3C//DTD SVG 1.1//EN" "http://www.w3.org/Graphics/SVG/1.1/DTD/svg11.dtd">
<svg width="100%" height="100%" viewBox="0 0 219 77" version="1.1" xmlns="http://www.w3.org/2000/svg" xmlns:xlink="http://www.w3.org/1999/xlink" xml:space="preserve" xmlns:serif="http://www.serif.com/" style="fill-rule:evenodd;clip-rule:evenodd;stroke-linejoin:round;stroke-miterlimit:2;">
    <g transform="matrix(1,0,0,1,73.9353,21.7914)">
        <path d="M13.929,32.947C13.667,32.947 13.361,32.751 13.318,32.555C13.252,32.337 13.055,31.38 13.012,31.184C13.012,31.14 12.902,31.118 12.815,31.097C12.662,31.053 12.444,30.988 12.313,30.792C12.203,30.618 12.16,30.422 12.138,30.226C12.116,30.052 12.094,29.878 11.985,29.725C11.854,29.486 11.22,28.811 10.718,28.245C10.477,27.984 10.281,27.766 10.15,27.614L10.084,27.549C9.669,27.048 8.773,26.025 8.249,24.958C7.856,24.175 7.331,23.739 7.069,23.565C7.069,24.066 7.047,25.372 7.135,25.785C7.2,26.134 7.157,26.526 7.135,26.895C7.113,27.113 7.091,27.309 7.091,27.483C7.091,27.636 7.091,28.027 6.742,28.027C6.654,28.027 6.523,28.006 6.392,27.962C6.152,27.897 5.89,27.723 5.584,27.549C5.409,27.44 5.234,27.331 5.038,27.222C4.47,26.917 4.12,26.656 4.098,26.634L4.076,26.634L4.076,26.613C3.814,26.243 3.727,25.938 3.836,25.698C4.033,25.307 4.644,25.285 4.666,25.285L4.688,25.285L5.278,25.503L5.278,25.067L5.715,25.002C5.759,24.893 5.868,24.632 5.846,24.371C5.802,24.022 5.322,20.692 5.125,19.582C5.081,19.321 5.125,19.081 5.256,18.907C5.431,18.69 5.671,18.602 5.846,18.581C5.737,18.319 5.453,17.732 5.3,17.449C5.191,17.253 5.147,16.883 5.081,16.426C5.016,15.947 4.95,15.381 4.797,14.967C4.601,14.445 4.339,14.336 4.12,14.336C3.989,14.336 3.902,14.38 3.88,14.401C3.836,14.423 3.77,14.467 3.683,14.51C3.355,14.684 2.744,14.989 2.11,15.403C1.957,15.512 1.804,15.555 1.673,15.555C1.149,15.555 0.974,14.793 0.974,14.14C0.974,13.618 1.127,12.508 1.302,12.094C1.389,11.898 1.389,11.681 1.389,11.463C1.389,11.289 1.389,11.115 1.455,10.984C1.455,10.832 1.586,10.766 1.804,10.766C2.11,10.766 2.525,10.875 2.547,10.897L2.591,10.919L2.613,10.962C2.678,11.071 2.94,11.681 2.7,11.942C2.547,12.116 2.285,12.138 2.11,12.138L2.066,12.138L2.11,13.661C2.394,13.574 2.831,13.4 2.962,13.313L3.05,13.248C3.29,13.074 3.749,12.747 3.902,12.355C4.076,11.942 4.47,11.877 4.797,11.833C4.907,11.811 4.994,11.789 5.081,11.768C5.147,11.746 5.234,11.724 5.365,11.724C5.606,11.724 5.911,11.768 6.152,11.811C6.043,11.702 5.933,11.572 5.868,11.485C5.737,11.289 5.693,10.984 5.671,10.701C5.671,10.636 5.649,10.549 5.649,10.483C5.649,10.462 5.475,9.221 5.54,8.764C5.606,8.328 6.174,8.046 7.113,7.98L7.2,7.98C8.096,7.98 8.468,8.96 8.468,9.373L8.468,9.526C8.468,9.961 8.489,10.723 8.249,11.028C8.096,11.224 8.205,11.485 8.271,11.594C8.446,11.615 9.036,11.659 9.298,11.702L9.385,11.702C9.451,11.702 9.56,11.681 9.669,11.681C9.909,11.659 10.259,11.615 10.783,11.615C11.22,11.615 11.723,11.637 12.247,11.702C14.082,11.898 14.279,12.834 14.388,13.357C14.41,13.444 14.432,13.509 14.432,13.574C14.563,13.966 15.153,14.967 15.415,15.381L15.458,15.446C15.611,15.729 15.764,15.794 15.939,15.903C16.005,15.947 16.092,15.99 16.201,16.056C16.551,16.295 16.354,16.752 16.223,17.035C16.201,17.079 16.201,17.101 16.179,17.122C16.07,17.384 15.808,17.449 15.611,17.471C15.568,17.471 15.524,17.492 15.48,17.492L15.415,17.492C15.349,17.492 15.284,17.471 15.24,17.405C15.131,17.275 15.153,16.97 15.196,16.818C15.218,16.731 15.196,16.665 15.153,16.622C15.131,16.6 15.109,16.578 15.065,16.578C15.043,16.578 15.022,16.578 15,16.6C14.781,16.774 14.606,16.796 14.585,16.796L14.454,16.796L14.475,16.665C14.475,16.643 14.541,16.121 14.563,15.86C14.585,15.751 14.388,15.49 14.257,15.316C14.148,15.163 14.06,15.033 13.995,14.924C13.929,14.771 13.58,14.314 13.296,13.923C13.077,13.661 12.881,13.4 12.793,13.248C12.706,13.117 12.575,13.052 12.378,13.052C12.225,13.052 12.072,13.095 11.963,13.117L11.876,13.139C11.635,13.182 11.045,13.487 10.827,13.879C10.761,13.988 10.696,14.097 10.609,14.206C10.346,14.576 10.041,15.054 9.975,15.664C9.888,16.36 9.8,17.34 9.975,17.775C10.106,18.102 10.281,18.319 10.456,18.559C10.499,18.624 10.565,18.69 10.609,18.755C10.805,19.016 10.893,19.669 10.958,20.387C10.98,20.518 10.98,20.627 11.002,20.714C11.045,21.019 10.609,21.367 10.215,21.672C10.062,21.78 9.888,21.933 9.866,21.976C9.778,22.15 9.778,22.912 9.822,23.173C9.866,23.413 10.434,24.697 10.674,25.198C10.958,25.764 11.308,26.264 11.679,26.591C12.007,26.874 12.225,27.44 12.378,27.853C12.444,28.006 12.487,28.136 12.531,28.202C12.662,28.485 13.034,28.615 13.667,28.615C13.929,28.615 14.126,28.68 14.257,28.833C14.388,29.007 14.366,29.203 14.344,29.225C14.344,29.225 14.235,30.269 14.235,30.683C14.235,30.835 14.257,31.053 14.257,31.292C14.279,31.728 14.322,32.228 14.279,32.555C14.279,32.816 14.148,32.947 13.929,32.947Z" style="fill:rgb(18,18,20);fill-rule:nonzero;"/>
    </g>
    <g transform="matrix(1,0,0,1,73.9353,21.7914)">
        <path d="M10.652,30.03L17.141,30.03L17.884,27.679L14.192,27.679L14.869,25.48L18.211,25.48L18.91,23.217L15.59,23.217L16.18,21.323L19.741,21.323L20.462,18.972L14.126,18.972L10.652,30.03Z" style="fill:rgb(18,18,20);"/>
    </g>
    <g transform="matrix(1,0,0,1,73.9353,21.7914)">
        <path d="M17.752,30.03L20.374,30.03L22.515,23.195L22.536,23.195L22.274,30.03L25.333,30.03L28.785,18.972L26.163,18.972L24.044,25.785L24.022,25.785L24.35,18.972L21.226,18.972L17.752,30.03Z" style="fill:rgb(18,18,20);"/>
    </g>
    <g transform="matrix(1,0,0,1,73.9353,21.7914)">
        <path d="M26.252,30.03L32.718,30.03L33.461,27.679L29.769,27.679L30.468,25.48L33.789,25.48L34.488,23.217L31.167,23.217L31.757,21.323L35.318,21.323L36.039,18.972L29.703,18.972L26.252,30.03Z" style="fill:rgb(18,18,20);"/>
    </g>
    <g transform="matrix(1,0,0,1,73.9353,21.7914)">
        <path d="M33.351,30.03L36.147,30.03L37.523,25.611L38.266,25.611C38.943,25.611 39.074,25.938 38.681,27.2L38.441,27.94C38.288,28.397 37.96,29.464 38.048,30.052L41.019,30.052L41.062,29.899C40.91,29.812 40.888,29.682 40.844,29.551C40.778,29.333 41.019,28.593 41.194,28.027L41.499,27.091C41.958,25.611 41.827,24.741 40.516,24.61L40.516,24.588C41.849,24.392 42.701,23.435 43.16,21.954C43.684,20.257 43.269,19.016 41.128,19.016L36.759,19.016L33.351,30.03ZM38.943,21.04L39.49,21.04C40.32,21.04 40.56,21.432 40.276,22.324C40.036,23.108 39.49,23.63 38.703,23.63L38.157,23.63L38.943,21.04Z" style="fill:rgb(18,18,20);"/>
    </g>
    <g transform="matrix(1,0,0,1,73.9353,21.7914)">
        <path d="M46.415,25.981L47.398,25.981C46.786,27.918 46.306,28.31 45.716,28.31C44.864,28.31 45.017,27.505 45.956,24.523C46.896,21.541 47.223,20.735 48.141,20.735C48.469,20.735 48.622,20.91 48.643,21.214C48.665,21.519 48.556,21.933 48.381,22.499L51.09,22.499C51.92,19.821 50.85,18.776 48.862,18.776C45.563,18.776 44.23,20.822 43.073,24.523C41.937,28.18 41.521,30.269 44.362,30.269C45.301,30.269 46.371,30.03 47.049,29.072L47.071,29.072L46.83,30.052L48.731,30.052L50.61,24.044L47.027,24.044L46.415,25.981Z" style="fill:rgb(18,18,20);fill-rule:nonzero;"/>
    </g>
    <g transform="matrix(1,0,0,1,73.9353,21.7914)">
        <path d="M51.331,30.03L54.127,30.03L55.481,25.676L60.31,18.972L57.251,18.972L55.001,22.825L54.979,22.825L55.132,18.972L52.051,18.972L52.707,25.676L51.331,30.03Z" style="fill:rgb(18,18,20);"/>
    </g>
    <g transform="matrix(1,0,0,1,73.9353,21.7914)">
        <path d="M19.063,9.961L22.996,9.961C23.302,8.938 23.913,8.502 24.634,8.502C25.421,8.502 25.661,9.177 25.071,11.093C24.044,14.379 23.52,14.771 22.69,14.771C21.947,14.771 21.641,14.314 22.144,12.703L22.318,12.116L18.255,12.116L18.08,12.66C17.119,15.751 18.146,17.557 21.969,17.557C26.076,17.557 28.086,15.337 29.484,10.897C30.62,7.262 29.703,5.477 27.037,5.477C25.792,5.477 24.612,5.956 23.586,6.739L24.678,3.866L30.97,3.866L32.018,0.47L22.406,0.47L19.063,9.961Z" style="fill:rgb(18,18,20);"/>
    </g>
    <g transform="matrix(1,0,0,1,73.9353,21.7914)">
        <path d="M29.287,13.922L33.962,13.922L34.705,11.55L30.008,11.55L29.287,13.922Z" style="fill:rgb(18,18,20);"/>
    </g>
    <g transform="matrix(1,0,0,1,73.9353,21.7914)">
        <path d="M33.351,17.209L36.06,17.209L37.786,11.68C38.004,10.984 38.266,10.679 38.747,10.679C39.227,10.679 39.315,10.984 39.096,11.68L37.37,17.209L40.079,17.209L42.067,10.875C42.614,9.112 41.762,8.59 40.669,8.59C40.014,8.59 39.162,8.851 38.441,9.743L38.419,9.743L39.555,6.13L36.846,6.13L33.351,17.209Z" style="fill:rgb(18,18,20);"/>
    </g>
    <g transform="matrix(1,0,0,1,73.9353,21.7914)">
        <path d="M48.6,13.03C49.365,10.614 49.693,8.611 46.525,8.611C43.466,8.611 42.374,10.81 41.697,13.008C40.932,15.424 40.604,17.427 43.772,17.427C46.831,17.427 47.923,15.228 48.6,13.03ZM44.406,13.03C45.061,10.897 45.367,10.418 45.979,10.418C46.59,10.418 46.569,10.919 45.913,13.03C45.258,15.141 44.974,15.642 44.34,15.642C43.728,15.642 43.75,15.141 44.406,13.03Z" style="fill:rgb(18,18,20);"/>
    </g>
    <g transform="matrix(1,0,0,1,73.9353,21.7914)">
        <path d="M48.25,15.163C47.682,16.97 48.469,17.449 49.648,17.449C50.588,17.449 51.396,17.035 52.008,16.208L52.03,16.208L51.702,17.231L54.324,17.231L56.945,8.829L54.236,8.829L52.51,14.358C52.292,15.054 52.03,15.359 51.549,15.359C51.068,15.359 50.981,15.054 51.2,14.358L52.925,8.829L50.216,8.829L48.25,15.163Z" style="fill:rgb(18,18,20);"/>
    </g>
    <g transform="matrix(1,0,0,1,73.9353,21.7914)">
        <path d="M54.804,17.209L57.513,17.209L58.933,12.638C59.283,11.528 59.96,11.158 60.921,11.158C61.14,11.158 61.358,11.18 61.577,11.223L62.385,8.611L61.948,8.611C61.162,8.611 60.266,9.156 59.654,10.157L59.632,10.157L60.047,8.829L57.426,8.829L54.804,17.209Z" style="fill:rgb(18,18,20);"/>
    </g>
</svg>
