<?xml version="1.0" encoding="UTF-8" standalone="no"?>
<!DOCTYPE svg PUBLIC "-//W3C//DTD SVG 1.1//EN" "http://www.w3.org/Graphics/SVG/1.1/DTD/svg11.dtd">
<svg width="100%" height="100%" viewBox="0 0 218 77" version="1.1" xmlns="http://www.w3.org/2000/svg" xmlns:xlink="http://www.w3.org/1999/xlink" xml:space="preserve" xmlns:serif="http://www.serif.com/" style="fill-rule:evenodd;clip-rule:evenodd;stroke-linejoin:round;stroke-miterlimit:2;">
    <g transform="matrix(1.29315,0,0,1.29315,37.5336,16.8139)">
        <g id="text4354" transform="matrix(0.104105,0,0,0.104105,39.8233,1.27663)">
            <path id="path4430" d="M255.895,296.172L255.895,281.899L250.797,281.899L250.797,278.993L264.449,278.993L264.449,281.899L259.363,281.899L259.363,296.172L255.895,296.172Z" style="fill:rgb(18,18,20);fill-rule:nonzero;"/>
            <path id="path4432" d="M266.653,296.172L266.653,278.992L271.844,278.992L274.961,290.711L278.043,278.992L283.246,278.992L283.246,296.172L280.023,296.172L280.023,282.649L276.613,296.172L273.273,296.172L269.875,282.649L269.875,296.172L266.653,296.172Z" style="fill:rgb(18,18,20);fill-rule:nonzero;"/>
        </g>
        <g transform="matrix(0.0283672,0,0,0.0283672,19.8063,-18.689)">
            <path d="M1249.77,551.371C1877.68,551.371 2389.7,865.213 2389.7,1250.12C2389.7,1634.8 1877.67,1948.63 1249.77,1948.63C622.315,1948.63 110.295,1634.8 110.295,1250.12C110.295,865.213 622.315,551.371 1249.77,551.371Z" style="fill:rgb(230,230,231);"/>
        </g>
        <g transform="matrix(0.0283672,0,0,0.0283672,19.8063,-18.689)">
            <path d="M1395.71,1056.48C1306.04,848.521 1640.39,852.58 1640.39,852.58C2149.78,905.769 2121.41,1264.43 2121.41,1264.43C2104.46,1613.1 1669.95,1789.1 1402.38,1864.69C1352.55,1868.74 1301.74,1871.12 1249.77,1871.12C665.012,1871.12 187.802,1592.12 187.802,1250.12C187.802,935.328 591.784,674.194 1111.68,634.364C1031.3,660.835 975.028,708.058 975.028,786.279C975.028,909.336 1161.29,936.287 1161.29,936.287C1218.04,1078.18 1395.71,1056.48 1395.71,1056.48Z"/>
            <clipPath id="_clip1">
                <path d="M1395.71,1056.48C1306.04,848.521 1640.39,852.58 1640.39,852.58C2149.78,905.769 2121.41,1264.43 2121.41,1264.43C2104.46,1613.1 1669.95,1789.1 1402.38,1864.69C1352.55,1868.74 1301.74,1871.12 1249.77,1871.12C665.012,1871.12 187.802,1592.12 187.802,1250.12C187.802,935.328 591.784,674.194 1111.68,634.364C1031.3,660.835 975.028,708.058 975.028,786.279C975.028,909.336 1161.29,936.287 1161.29,936.287C1218.04,1078.18 1395.71,1056.48 1395.71,1056.48Z"/>
            </clipPath>
            <g clip-path="url(#_clip1)">
                <path d="M1942.55,1457.83C1933.11,1438.22 1909.23,1429.84 1889.6,1439.23C1869.83,1448.53 1861.46,1472.37 1871.01,1492.17C1880.31,1511.95 1903.91,1520.32 1923.95,1510.77C1937.69,1504.2 1946.47,1490.26 1946.47,1475.03C1946.47,1469.07 1945.13,1463.19 1942.55,1457.83ZM1789.22,1135.18L1825.92,1109.65L1939.68,1226.99L1880.05,1080.32L1916.06,1055.52L2015.28,1303.31C2015.28,1303.31 2068.68,1409.19 1979.26,1450.91L1958.51,1416.34C1982.35,1404.17 2012.39,1361.98 1977.36,1326.21L1789.22,1135.18ZM1682.59,1481.21L1642.3,1497.9L1559.8,1232.23L1602,1217.21L1609.39,1237.24C1609.39,1237.24 1622.04,1206.95 1652.34,1196.93L1670.93,1244.86C1670.93,1244.86 1615.36,1260.84 1640.64,1344.08L1682.59,1481.21ZM1502.79,1523.18L1524.73,1625.02L1478.45,1635.73L1404.54,1268.73L1446.99,1260.36L1452,1275.86C1452,1275.86 1453.2,1255.34 1487.06,1244.62C1520.9,1233.64 1552.39,1280.62 1568.12,1370.3C1584.1,1459.97 1589.83,1517.19 1545.7,1530.8C1527.59,1536.31 1517.33,1533.19 1502.79,1523.18ZM1244.03,1456.89L1292.68,1449.02C1292.68,1449.02 1299.12,1528.43 1345.86,1517.46C1380.7,1509.59 1368.53,1466.67 1365.9,1456.15C1363.27,1445.92 1359.68,1420.86 1304.59,1391.05C1244.03,1358.14 1230.91,1328.32 1222.32,1301.14C1213.5,1273.71 1193.7,1180.95 1275.99,1159.48C1363.27,1136.83 1369.23,1228.65 1378.53,1263.48L1332.02,1272.52C1332.02,1272.52 1325.81,1206.71 1288.62,1214.81C1255.71,1221.73 1267.39,1260.58 1270.74,1275.86C1275.98,1301.85 1295.29,1317.83 1334.65,1343.12C1373.77,1368.4 1402.62,1383.65 1415.26,1442.32C1427.91,1500.98 1418.61,1558.24 1360.64,1569.43C1301.02,1581.14 1260.73,1554.91 1244.03,1456.89ZM369.288,1293.05C296.074,1242.72 367.135,1128.97 410.545,1064.57C452.048,1002.81 521.436,892.398 601.33,947.96C674.778,999.23 605.623,1108.21 563.653,1170.7C520.723,1234.15 446.562,1346.22 369.288,1293.05ZM688.85,1281.83L653.08,1259.66C663.819,1238.91 684.324,1204.33 664.765,1191.22C635.194,1171.43 603.003,1229.86 584.872,1259.9C568.413,1287.33 545.288,1341.7 565.56,1356.26C584.405,1369.61 604.43,1347.67 624.468,1316.66L661.678,1340.05C621.135,1414.92 575.585,1423.03 536.001,1397.51C482.346,1363.19 518.596,1281.39 546.261,1236.3C580.125,1181.69 627.814,1109.67 690.536,1146.16C736.553,1172.86 712.935,1240.1 688.85,1281.83ZM829.079,1390.58L737.746,1359.57C737.746,1359.57 710.082,1423.25 739.406,1436.38C739.406,1436.38 765.398,1447.11 779.47,1402.99L820.26,1417.53C820.26,1417.53 794.035,1510.77 721.534,1482.17C658.579,1457.35 681.704,1377.48 703.649,1320.48C725.581,1263.48 755.631,1185.26 823.36,1209.81C893.708,1237.48 847.211,1344.1 829.079,1390.58ZM1737.69,1262.05L1700.25,1281.13C1700.25,1281.13 1652.54,1183.6 1725.28,1158.32C1763.93,1144.96 1786.59,1158.8 1811.86,1218.42L1863.85,1341.48C1863.85,1341.48 1877.67,1368.18 1891.06,1388.7L1849.09,1410.89L1844.3,1399.67C1844.3,1399.67 1834.52,1427.58 1814.26,1434.96C1793.74,1442.13 1752.25,1441.17 1728.42,1366.77C1704.58,1292.36 1764.67,1264.93 1779.68,1257.8L1767.52,1224.63C1767.52,1224.63 1758.67,1196.73 1740.79,1202.93C1725.54,1208.15 1721.71,1220.78 1737.69,1262.05ZM918.506,1350.53L879.869,1340.5C879.869,1340.5 894.654,1237.02 969.308,1255.14C969.308,1255.14 1026.54,1264.68 1007.47,1356.26L980.281,1487.18C980.281,1487.18 974.561,1521.76 973.848,1546.1L928.531,1535.84L930.931,1524.14C930.931,1524.14 907.079,1541.57 886.094,1535.84C865.109,1530.34 831.725,1505.8 854.383,1431.15C877.041,1356.27 942.15,1367.71 958.595,1370.58L967.415,1336.24C967.415,1336.24 976.714,1309.05 957.882,1303.07C938.778,1297.11 928.518,1307.59 918.506,1350.53ZM1060.89,1557.28L1015.09,1553L1041.56,1276.12L1086.4,1281.36L1084.73,1298.29C1084.73,1298.29 1098.09,1275.38 1130.28,1279.44C1162.47,1283.75 1169.39,1313.57 1166.76,1345.51L1148.88,1565.87L1104.04,1561.59L1122.64,1366.03C1122.64,1366.03 1128.6,1336.21 1105,1334.54C1080.43,1332.86 1078.76,1349.08 1077.1,1366.73C1078.77,1349.09 1060.89,1557.28 1060.89,1557.28Z" style="fill:white;"/>
            </g>
        </g>
        <g transform="matrix(0.0283672,0,0,0.0283672,19.8063,-18.689)">
            <path d="M1519.97,649.383C1974.97,719.498 2312.18,962.512 2312.18,1250.12C2312.18,1561.82 1915.6,1821.05 1402.38,1864.69C1669.96,1789.1 2104.47,1613.1 2121.41,1264.43C2121.41,1264.43 2149.79,905.769 1640.39,852.58C1640.39,852.58 1306.04,848.521 1395.71,1056.48C1395.71,1056.48 1184.18,1040.27 1184.18,873.086C1184.18,763.621 1291.96,673.468 1519.97,649.383Z" style="fill:rgb(146,148,150);"/>
        </g>
        <g transform="matrix(0.0283672,0,0,0.0283672,19.8063,-18.689)">
            <path d="M1468.45,642.237C1348.25,651.056 1144.6,696.373 1150.08,901.464C1150.08,901.464 1016.06,892.164 1016.06,776.733C1016.06,711.625 1079.25,654.389 1196.11,629.825C1286.98,627.205 1378.06,631.018 1468.45,642.237Z" style="fill:rgb(146,148,150);"/>
        </g>
        <g transform="matrix(0.0283672,0,0,0.0283672,19.8063,-18.689)">
            <path d="M1938.5,1459.98C1940.75,1464.69 1941.92,1469.85 1941.92,1475.07C1941.92,1488.6 1934.06,1500.97 1921.81,1506.72C1904.4,1515.31 1883.4,1507.68 1875.07,1490.28C1866.73,1472.87 1874.14,1451.7 1891.51,1443.29C1896.25,1441.02 1901.44,1439.85 1906.69,1439.85C1920.27,1439.85 1932.69,1447.71 1938.5,1459.98ZM1519.97,1481.44C1496.1,1486.68 1482.04,1431.14 1476.06,1400.84C1469.63,1368.65 1456.76,1308.08 1483.94,1302.83C1508.25,1298.29 1519.95,1357.44 1526.14,1388.93C1532.35,1418.97 1542.61,1476.45 1519.97,1481.44ZM400.286,1242.72C369.755,1218.87 426.044,1138.5 455.861,1095.34C483.759,1054.56 536.222,973.952 567.7,998.283C598.71,1022.37 546.001,1098.2 518.103,1139.23C488.286,1182.63 434.63,1269.67 400.286,1242.72ZM805.954,1332.38L757.538,1312.12C757.538,1312.12 773.75,1249.65 803.321,1260.38C833.372,1269.92 812.387,1317.62 805.954,1332.38ZM1802.08,1304.73L1818.78,1338.83C1818.78,1338.83 1831.42,1369.37 1804.72,1381.54C1804.72,1381.54 1788.48,1390.84 1776.09,1361.98C1763.94,1333.36 1776.59,1310.69 1802.08,1304.73ZM950.23,1422.07L944.51,1459.51C944.51,1459.51 937.597,1491.7 908.74,1486.7C908.74,1486.7 890.141,1485.03 896.34,1454.27C902.527,1423.73 925.912,1412.29 950.23,1422.07Z"/>
        </g>
        <g transform="matrix(0.0283672,0,0,0.0283672,19.8063,-18.689)">
            <path d="M1902.25,1500.06L1907.49,1497.64L1899.38,1480.72L1912.25,1474.51C1920.62,1470.71 1921.8,1479.05 1924.66,1483.35L1928.01,1487.89L1933.96,1485C1930.13,1482.61 1930.39,1481.43 1927.53,1476.44C1923.7,1469.75 1923.25,1469.27 1917.98,1468.57C1920.37,1463.81 1921.1,1461.17 1918.46,1456.15C1913.7,1447.57 1907.27,1449.24 1901.06,1452.11L1883.4,1460.69L1902.25,1500.06Z" style="fill:white;"/>
        </g>
        <g transform="matrix(0.0283672,0,0,0.0283672,19.8063,-18.689)">
            <path d="M1903.44,1456.65C1906.53,1455.23 1911.81,1453.56 1914.18,1460.69C1916.08,1466.19 1913.22,1468.57 1909.88,1470.24L1897.23,1476.19L1890.8,1462.61L1903.44,1456.65Z"/>
        </g>
    </g>
</svg>
