<?xml version="1.0" encoding="UTF-8" standalone="no"?>
<!DOCTYPE svg PUBLIC "-//W3C//DTD SVG 1.1//EN" "http://www.w3.org/Graphics/SVG/1.1/DTD/svg11.dtd">
<svg width="100%" height="100%" viewBox="0 0 218 77" version="1.1" xmlns="http://www.w3.org/2000/svg" xmlns:xlink="http://www.w3.org/1999/xlink" xml:space="preserve" xmlns:serif="http://www.serif.com/" style="fill-rule:evenodd;clip-rule:evenodd;stroke-linejoin:round;stroke-miterlimit:2;">
    <g transform="matrix(1.29315,0,0,1.29315,37.5336,16.8139)">
        <path d="M25.667,18.474L27.981,18.474C28.884,18.474 29.227,18.786 29.227,19.549C29.227,20.284 28.884,20.595 27.981,20.595L25.667,20.595L25.667,18.474ZM22.081,26.194L25.667,26.194L25.667,23.055L29.507,23.055C32.05,23.055 32.966,21.557 32.966,19.62C32.966,17.372 32.024,16.1 29.481,16.1L22.081,16.1L22.081,26.194ZM34.148,16.1L43.798,16.1L43.798,18.559L37.734,18.559L37.734,19.917L43.367,19.917L43.367,22.377L37.734,22.377L37.734,23.734L43.798,23.734L43.798,26.194L34.148,26.194L34.148,16.1ZM48.885,18.474L51.199,18.474C52.102,18.474 52.445,18.786 52.445,19.549C52.445,20.284 52.102,20.595 51.199,20.595L48.885,20.595L48.885,18.474ZM45.299,26.194L48.885,26.194L48.885,23.055L52.725,23.055C55.268,23.055 56.184,21.557 56.184,19.62C56.184,17.372 55.243,16.1 52.699,16.1L45.299,16.1L45.299,26.194ZM59.654,21.91C58.2,21.801 57.086,20.525 57.176,19.068C57.176,16.453 59.477,15.747 62.426,15.747C66.469,15.747 68.135,16.92 68.263,19.055L64.092,19.055C64.105,18.696 63.883,18.369 63.546,18.248C63.193,18.097 62.81,18.024 62.426,18.037C61.358,18.037 60.99,18.333 60.99,18.758C60.988,18.774 60.987,18.791 60.987,18.808C60.987,19.067 61.201,19.281 61.46,19.281L65.745,19.987C67.551,20.284 68.67,21.217 68.67,22.927C68.67,25.388 66.864,26.547 62.833,26.547C60.074,26.547 57.06,26.123 57.048,23.154L61.371,23.154C61.356,23.446 61.503,23.724 61.753,23.875C62.137,24.041 62.555,24.113 62.973,24.087C64.091,24.087 64.397,23.747 64.397,23.267C64.399,22.906 64.11,22.604 63.749,22.589L59.654,21.91ZM69.839,16.1L73.424,16.1L73.424,26.194L69.839,26.194L69.839,16.1ZM86.713,22.264C86.606,23.461 86.063,24.579 85.186,25.402C84.309,26.137 82.936,26.547 80.749,26.547C78.575,26.547 74.544,26.377 74.544,21.147C74.544,15.917 78.575,15.746 80.749,15.746C82.91,15.746 86.242,16.057 86.713,20.058L82.669,20.058C82.618,19.051 81.757,18.259 80.749,18.291C79.286,18.291 78.358,19.096 78.358,21.147C78.358,23.197 79.261,24.002 80.571,24.002C81.619,24.084 82.555,23.308 82.669,22.263L86.713,22.263L86.713,22.264ZM91.404,21.147C91.404,19.097 92.333,18.291 93.795,18.291C95.257,18.291 96.186,19.097 96.186,21.147C96.186,23.198 95.257,24.002 93.795,24.002C92.333,24.002 91.404,23.197 91.404,21.147ZM87.589,21.147C87.589,26.377 91.62,26.547 93.795,26.547C95.97,26.547 100,26.377 100,21.147C100,15.917 95.969,15.747 93.795,15.747C91.621,15.747 87.589,15.916 87.589,21.147ZM16.663,16.2C16.895,11.357 12.719,5.904 7.025,5.23L7.035,5.164C12.648,5.164 16.951,10.36 16.951,14.459C16.972,15.054 16.907,15.649 16.758,16.225L16.663,16.2ZM16.323,16.816C15.908,17.314 15.441,17.768 14.93,18.167C13.918,12.346 9.64,7.255 6.615,5.769L6.55,5.814C10.394,9.146 13.199,13.514 14.631,18.396C13.911,18.924 13.134,19.37 12.314,19.723C9.443,16.45 6.767,10.137 5.905,6.131L5.817,6.157C5.837,10.046 8.597,16.647 11.964,19.868C11.192,20.173 10.389,20.395 9.57,20.529C6.343,19.251 4.045,15.156 4.045,10.961C4.012,9.314 4.353,7.679 5.042,6.182L4.973,6.155C4.002,7.618 3.507,9.345 3.554,11.1C3.555,15.842 5.893,19.466 8.997,20.607C7.887,20.729 6.765,20.676 5.671,20.451L5.648,20.523C6.659,20.924 7.738,21.126 8.825,21.118C11.916,21.123 14.794,19.508 16.399,16.867L16.323,16.816Z" style="fill:rgb(18,18,20);"/>
    </g>
    <g transform="matrix(1.29315,0,0,1.29315,37.5336,16.8139)">
        <path d="M8.437,3.453C5.49,3.453 2.034,5.58 2.034,7.524C2.034,8.276 2.722,8.912 4.146,8.912C7.451,8.912 10.522,6.641 10.522,4.875C10.522,3.946 9.63,3.453 8.437,3.453ZM9.613,4.82C9.613,6.309 6.755,8.128 4.365,8.128C3.31,8.128 2.739,7.713 2.739,7.027C2.739,5.517 5.63,3.729 7.872,3.729C9.333,3.728 9.613,4.472 9.613,4.82Z" style="fill:rgb(18,18,20);"/>
    </g>
    <g transform="matrix(1.29315,0,0,1.29315,37.5336,16.8139)">
        <path d="M0.86,8.424C0.61,8.872 0.468,9.371 0.445,9.883C0.445,11.117 1.692,12.263 3.986,12.263C8.4,12.263 13.498,9.014 13.498,5.999C13.398,4.836 12.487,3.895 11.327,3.757L11.311,3.81C12.073,4.06 12.594,4.773 12.601,5.575C12.601,7.977 8.099,11.251 3.615,11.251C1.898,11.251 0.816,10.403 0.816,9.169C0.815,8.925 0.849,8.681 0.92,8.447L0.86,8.424Z" style="fill:rgb(18,18,20);"/>
    </g>
    <g transform="matrix(1.29315,0,0,1.29315,37.5336,16.8139)">
        <path d="M15.318,6.225C15.866,6.678 16.178,7.357 16.166,8.068C16.166,11.974 10.046,15.815 4.635,15.815C1.408,15.815 -0.063,14.222 0.002,12.808L0.06,12.808C0.187,13.542 1.234,14.857 4.058,14.857C9.476,14.857 15.525,10.882 15.525,7.4C15.538,7.006 15.45,6.616 15.271,6.265L15.318,6.225Z" style="fill:rgb(18,18,20);"/>
    </g>
    <g transform="matrix(1.29315,0,0,1.29315,37.5336,16.8139)">
        <path d="M17.364,9.871C17.472,10.208 17.525,10.56 17.521,10.914C17.521,15.26 11.327,18.98 5.94,18.98C3.167,18.98 1.72,17.633 1.414,17.086L1.463,17.05C2.641,17.883 4.064,18.299 5.505,18.23C10.263,18.23 17.362,14.61 17.298,9.887L17.364,9.871Z" style="fill:rgb(18,18,20);"/>
    </g>
</svg>
