<?xml version="1.0" standalone="no"?>
<!DOCTYPE svg PUBLIC "-//W3C//DTD SVG 20010904//EN"
 "http://www.w3.org/TR/2001/REC-SVG-20010904/DTD/svg10.dtd">
<svg version="1.0" xmlns="http://www.w3.org/2000/svg"
 width="260.000000pt" height="260.000000pt" viewBox="0 0 260.000000 260.000000"
 preserveAspectRatio="xMidYMid meet">
<metadata>
Created by potrace 1.14, written by Peter Selinger 2001-2017
</metadata>
<g transform="translate(0.000000,260.000000) scale(0.100000,-0.100000)"
fill="#000000" stroke="none">
<path d="M305 1780 c-3 -5 4 -14 15 -20 11 -6 20 -15 20 -20 0 -12 -55 -13
-78 -1 -9 4 -33 11 -52 14 -30 6 -26 2 30 -29 36 -19 88 -43 115 -52 47 -16
48 -17 20 -20 -16 -2 -33 -8 -36 -14 -4 -6 -32 -12 -63 -13 -104 -4 -90 -21
54 -64 58 -18 112 -35 120 -38 8 -3 20 -7 26 -8 65 -14 494 -181 512 -200 14
-13 -84 -65 -122 -65 -11 0 -50 11 -86 23 -49 17 -74 21 -100 15 -19 -4 -60
-5 -90 -2 l-55 5 48 -30 c96 -62 46 -69 -106 -15 -94 34 -62 4 55 -53 48 -23
98 -45 112 -49 14 -3 30 -12 36 -20 15 -17 -27 -44 -117 -75 -82 -29 -133 -71
-133 -109 0 -16 -4 -32 -10 -35 -16 -10 -12 -45 6 -45 12 0 14 -7 9 -29 -5
-26 -3 -30 27 -42 46 -18 60 -17 83 4 25 23 195 105 305 148 94 36 175 45 224
24 36 -16 70 -27 74 -25 2 1 14 -6 28 -15 23 -15 44 -18 125 -16 15 1 29 8 33
16 3 8 14 15 25 15 25 0 18 27 -10 35 -10 4 -19 13 -19 20 0 14 8 14 63 0 48
-13 29 10 -25 29 -62 22 -148 66 -148 76 0 13 99 51 123 47 30 -5 85 -31 493
-233 193 -96 354 -174 358 -174 5 0 3 7 -4 15 -9 10 -9 15 -1 15 6 0 13 -1 14
-2 2 -2 11 3 19 9 8 7 25 11 37 8 19 -3 21 -2 11 10 -6 8 -21 17 -33 21 -11 3
-25 11 -31 16 -6 5 -29 20 -51 33 -72 44 -8 28 78 -19 51 -28 101 -47 130 -51
27 -3 63 -13 80 -22 30 -15 31 -15 18 1 -17 20 -181 128 -396 262 -88 54 -161
102 -163 106 -2 4 -8 8 -12 8 -5 0 -71 37 -147 81 -314 186 -592 329 -833 432
-14 6 -27 11 -30 12 -14 5 -48 18 -75 30 -39 17 -222 75 -236 75 -5 0 -31 -9
-56 -21 -54 -24 -97 -22 -161 9 -23 11 -44 16 -47 12z"/>
</g>
</svg>
