<?xml version="1.0" standalone="no"?>
<!DOCTYPE svg PUBLIC "-//W3C//DTD SVG 20010904//EN"
 "http://www.w3.org/TR/2001/REC-SVG-20010904/DTD/svg10.dtd">
<svg version="1.0" xmlns="http://www.w3.org/2000/svg"
 width="260.000000pt" height="260.000000pt" viewBox="0 0 260.000000 260.000000"
 preserveAspectRatio="xMidYMid meet">
<metadata>
Created by potrace 1.14, written by Peter Selinger 2001-2017
</metadata>
<g transform="translate(0.000000,260.000000) scale(0.100000,-0.100000)"
fill="#000000" stroke="none">
<path d="M973 2138 l-133 -72 0 -777 0 -777 132 -71 132 -71 161 0 161 0 132
71 132 71 0 776 0 777 -134 70 -134 69 -41 -18 -41 -19 0 -134 0 -133 -75 0
-75 0 0 135 0 135 -40 20 c-21 11 -41 20 -42 20 -2 0 -63 -33 -135 -72z m169
44 l26 -17 -123 -68 -124 -68 -32 17 -33 16 25 13 c13 8 69 38 124 69 55 30
102 56 105 56 3 0 17 -8 32 -18z m403 -54 c116 -58 123 -63 102 -75 -12 -7
-28 -12 -35 -13 -6 0 -64 28 -128 62 -106 55 -115 63 -98 75 10 7 21 13 26 13
4 0 64 -28 133 -62z m-365 -138 c0 -88 -3 -160 -6 -160 -4 0 -60 28 -126 63
-118 62 -119 62 -116 96 3 33 9 37 118 98 63 34 118 63 123 63 4 0 7 -72 7
-160z m498 -2 l-3 -63 -127 -68 c-121 -65 -128 -68 -154 -54 l-27 14 54 30
c189 105 190 106 216 94 35 -16 43 -13 11 5 -50 26 -32 98 25 103 4 1 7 -27 5
-61z m-670 -84 c48 -26 102 -56 121 -67 l33 -20 -26 -14 c-26 -14 -33 -11
-152 53 -117 64 -123 69 -102 81 32 17 31 18 126 -33z m-29 -60 l121 -66 0
-694 c0 -382 -2 -694 -5 -694 -2 0 -57 29 -122 64 l-118 64 -3 696 c-1 383 0
696 2 696 3 0 59 -30 125 -66z m699 -631 l-3 -698 -115 -62 c-63 -34 -118 -63
-122 -63 -5 0 -8 312 -8 694 l0 695 118 64 c64 36 120 65 125 66 4 1 6 -313 5
-696z m-338 652 c0 -24 -2 -25 -75 -25 -73 0 -75 1 -75 25 0 24 2 25 75 25 73
0 75 -1 75 -25z m0 -180 l0 -135 -75 0 -75 0 0 135 0 135 75 0 75 0 0 -135z
m-160 -10 c0 -122 0 -125 -25 -141 -14 -9 -24 -19 -21 -21 3 -3 15 2 28 11 35
25 174 22 213 -4 l30 -20 -132 0 c-72 0 -138 3 -147 6 -14 5 -16 27 -16 140 0
116 2 134 18 143 9 6 25 11 35 11 15 0 17 -12 17 -125z m240 -740 l0 -555
-155 0 -155 0 0 555 0 555 155 0 155 0 0 -555z"/>
</g>
</svg>
