<?xml version="1.0" standalone="no"?>
<!DOCTYPE svg PUBLIC "-//W3C//DTD SVG 20010904//EN"
 "http://www.w3.org/TR/2001/REC-SVG-20010904/DTD/svg10.dtd">
<svg version="1.0" xmlns="http://www.w3.org/2000/svg"
 width="150.000000pt" height="150.000000pt" viewBox="0 0 150.000000 150.000000"
 preserveAspectRatio="xMidYMid meet">
<metadata>
Created by potrace 1.14, written by Peter Selinger 2001-2017
</metadata>
<g transform="translate(0.000000,150.000000) scale(0.100000,-0.100000)"
fill="#000000" stroke="none">
<path d="M382 1248 c-47 -13 -118 -85 -131 -133 -21 -80 0 -154 60 -213 41
-40 80 -53 171 -55 l73 -2 0 -95 0 -95 -73 -2 c-92 -3 -130 -15 -171 -55 -61
-60 -81 -135 -59 -216 14 -49 85 -118 137 -132 83 -22 178 11 226 80 29 41 36
71 38 160 l2 65 95 0 95 0 2 -60 c4 -134 31 -187 115 -229 116 -58 249 -1 284
122 23 79 7 147 -50 204 -43 43 -88 58 -171 60 -41 1 -76 4 -76 7 -1 3 -2 47
-3 96 l-2 90 78 3 c43 1 93 8 111 16 79 33 128 116 122 204 -10 141 -156 229
-285 171 -81 -36 -120 -102 -121 -202 -2 -99 3 -94 -102 -93 l-92 2 -2 64 c-2
89 -9 119 -38 160 -48 70 -145 102 -233 78z m116 -102 c40 -21 56 -58 57 -134
l0 -67 -68 1 c-78 2 -112 16 -133 56 -24 47 -18 86 20 124 38 38 77 44 124 20z
m621 -12 c36 -30 49 -81 31 -124 -19 -46 -54 -62 -134 -64 l-71 -1 1 72 c1 47
7 79 18 94 37 54 106 64 155 23z m-274 -384 l0 -95 -95 0 -95 0 -2 80 c-2 119
-7 114 100 112 l92 -2 0 -95z m-290 -267 c-4 -81 -21 -115 -65 -133 -93 -39
-182 59 -136 149 21 40 64 57 140 57 l64 -1 -3 -72z m522 68 c12 -1 35 -15 51
-31 26 -26 30 -36 28 -77 -2 -38 -9 -51 -35 -75 -48 -43 -121 -34 -157 20 -15
22 -28 147 -18 164 3 4 28 5 57 4 29 -2 62 -5 74 -5z"/>
</g>
</svg>
