<?xml version="1.0" standalone="no"?>
<!DOCTYPE svg PUBLIC "-//W3C//DTD SVG 20010904//EN"
 "http://www.w3.org/TR/2001/REC-SVG-20010904/DTD/svg10.dtd">
<svg version="1.0" xmlns="http://www.w3.org/2000/svg"
 width="260.000000pt" height="260.000000pt" viewBox="0 0 260.000000 260.000000"
 preserveAspectRatio="xMidYMid meet">
<metadata>
Created by potrace 1.14, written by Peter Selinger 2001-2017
</metadata>
<g transform="translate(0.000000,260.000000) scale(0.100000,-0.100000)"
fill="#000000" stroke="none">
<path d="M1392 1923 c-21 -8 -44 -62 -36 -86 3 -12 31 -48 60 -79 54 -56 65
-83 42 -106 -23 -23 -45 -11 -138 83 -51 52 -106 99 -121 105 -57 24 -111 -31
-95 -96 4 -16 47 -68 102 -124 93 -96 105 -115 82 -138 -26 -26 -54 -9 -168
103 -100 99 -120 115 -148 115 -40 0 -82 -38 -82 -73 0 -33 41 -85 149 -192
50 -49 91 -95 91 -101 0 -12 -32 -44 -45 -44 -5 0 -126 117 -269 259 -162 161
-271 262 -288 266 -48 12 -97 -28 -98 -79 0 -26 43 -73 320 -351 176 -177 320
-326 320 -332 0 -6 -8 -21 -19 -34 l-19 -23 -110 37 c-133 45 -155 46 -193 8
-36 -37 -37 -63 -1 -100 23 -25 55 -37 241 -86 118 -31 246 -70 285 -85 75
-30 209 -50 333 -50 56 0 75 -4 105 -25 20 -14 47 -25 60 -25 17 0 68 45 181
158 177 177 180 183 128 260 -22 32 -31 59 -36 110 -10 105 -32 179 -69 235
-19 29 -136 152 -259 275 -206 204 -227 222 -258 221 -19 0 -40 -3 -47 -6z
m337 -527 c116 -116 142 -148 139 -167 -2 -16 -11 -25 -27 -27 -19 -3 -50 22
-158 130 -74 73 -139 141 -144 151 -8 14 -6 23 7 38 9 10 22 19 28 19 6 0 76
-65 155 -144z m-166 -174 c90 -91 137 -146 137 -160 0 -27 -33 -46 -57 -33
-32 17 -283 277 -283 292 0 21 21 39 45 39 14 0 69 -48 158 -138z m-174 -176
c118 -118 142 -147 137 -164 -4 -12 -16 -24 -28 -28 -17 -5 -46 19 -164 137
-79 79 -144 151 -144 159 0 9 5 21 12 28 7 7 19 12 28 12 8 0 80 -65 159 -144z"/>
</g>
</svg>
