<?xml version="1.0" standalone="no"?>
<!DOCTYPE svg PUBLIC "-//W3C//DTD SVG 20010904//EN"
 "http://www.w3.org/TR/2001/REC-SVG-20010904/DTD/svg10.dtd">
<svg version="1.0" xmlns="http://www.w3.org/2000/svg"
 width="260.000000pt" height="260.000000pt" viewBox="0 0 260.000000 260.000000"
 preserveAspectRatio="xMidYMid meet">
<metadata>
Created by potrace 1.14, written by Peter Selinger 2001-2017
</metadata>
<g transform="translate(0.000000,260.000000) scale(0.100000,-0.100000)"
fill="#000000" stroke="none">
<path d="M1056 2402 c-35 -25 -43 -39 -91 -172 -38 -108 -75 -186 -144 -304
l-92 -159 3 -120 3 -120 97 -51 c54 -28 98 -54 98 -57 0 -3 -45 -84 -100 -179
l-100 -175 0 -352 0 -351 195 -101 195 -101 187 0 188 0 195 103 195 102 3
556 2 556 -50 218 c-30 131 -57 227 -67 239 -10 12 -75 84 -144 161 l-127 141
-190 97 c-104 53 -196 97 -203 97 -8 -1 -31 -13 -53 -28z m243 -76 c159 -81
172 -90 155 -103 -42 -31 -60 -27 -238 58 -97 46 -176 87 -176 91 0 9 63 48
75 45 6 -1 88 -42 184 -91z m-84 -61 c112 -54 175 -90 172 -98 -2 -6 -22 -65
-43 -129 -21 -65 -42 -118 -47 -118 -22 0 -358 183 -354 194 2 6 21 62 41 124
21 61 41 112 45 112 5 0 88 -38 186 -85z m428 -201 l135 -152 46 -201 46 -201
-2 -375 -3 -376 -365 -189 c-201 -104 -368 -189 -372 -190 -5 0 -8 108 -8 241
l0 240 190 332 c105 183 186 333 180 335 -5 2 -88 -37 -184 -87 -96 -50 -177
-91 -180 -91 -3 0 -6 48 -6 107 l0 106 96 166 c78 134 106 193 144 306 45 134
48 141 86 162 21 13 44 22 50 20 6 -1 72 -70 147 -153z m-545 -63 c86 -44 166
-86 176 -94 18 -14 15 -21 -70 -170 l-89 -156 -175 91 c-96 49 -178 93 -183
97 -8 8 163 311 176 311 4 0 79 -36 165 -79z m12 -544 l0 -109 -180 93 -180
93 0 107 0 107 180 -92 180 -91 0 -108z m183 -265 l-178 -311 -175 90 c-96 50
-178 94 -182 97 -6 6 166 320 186 339 4 4 44 -13 89 -37 l83 -43 174 91 c96
50 176 89 178 87 2 -2 -77 -143 -175 -313z m-183 -568 l0 -242 -180 92 -180
91 0 243 0 243 180 -92 180 -93 0 -242z m760 34 l0 -93 -189 -98 -189 -97
-172 2 -173 3 359 186 c198 103 360 187 362 188 1 0 2 -41 2 -91z m-3 -283
c-5 -12 -337 -185 -356 -185 -8 0 -11 26 -9 86 l3 87 180 93 180 93 3 -81 c2
-45 1 -86 -1 -93z m-931 74 l174 -90 0 -86 c0 -77 -2 -84 -17 -78 -10 3 -91
44 -180 91 l-163 85 0 85 c0 46 3 84 6 84 4 0 85 -41 180 -91z m554 -179 l0
-90 -180 0 -180 0 0 90 0 90 180 0 180 0 0 -90z"/>
</g>
</svg>
