<?xml version="1.0" encoding="UTF-8" standalone="no"?>
<!DOCTYPE svg PUBLIC "-//W3C//DTD SVG 1.1//EN" "http://www.w3.org/Graphics/SVG/1.1/DTD/svg11.dtd">
<svg width="100%" height="100%" viewBox="0 0 218 77" version="1.1" xmlns="http://www.w3.org/2000/svg" xmlns:xlink="http://www.w3.org/1999/xlink" xml:space="preserve" xmlns:serif="http://www.serif.com/" style="fill-rule:evenodd;clip-rule:evenodd;stroke-linejoin:round;stroke-miterlimit:2;">
    <g transform="matrix(1,0,0,1,7.44092,2.52227)">
        <g transform="matrix(1,0,0,1,27.9852,7.97075)">
            <path d="M10.642,31.514L10.704,31.417L9.069,30.24L8.999,30.349C8.719,30.795 8.323,31.157 7.854,31.397C7.348,31.645 6.791,31.767 6.227,31.758C5.764,31.763 5.307,31.669 4.885,31.48C4.485,31.3 4.126,31.039 3.832,30.713C3.527,30.368 3.292,29.967 3.139,29.532C2.804,28.553 2.804,27.491 3.139,26.512C3.294,26.074 3.532,25.67 3.84,25.323C4.138,24.993 4.499,24.727 4.901,24.539C5.318,24.348 5.771,24.252 6.229,24.256C6.778,24.247 7.32,24.37 7.811,24.617C8.274,24.86 8.665,25.222 8.943,25.666L9.012,25.774L9.116,25.7L10.539,24.679L10.635,24.61L10.569,24.512C10.117,23.823 9.496,23.263 8.764,22.884C7.292,22.174 5.584,22.128 4.075,22.758C3.42,23.042 2.825,23.452 2.328,23.963C1.825,24.487 1.428,25.103 1.159,25.777C0.872,26.493 0.727,27.258 0.731,28.029C0.723,28.806 0.862,29.577 1.141,30.302C1.399,30.971 1.786,31.583 2.28,32.103C2.772,32.612 3.363,33.012 4.017,33.281C4.714,33.564 5.46,33.707 6.212,33.7C7.112,33.713 8.003,33.519 8.817,33.133C9.565,32.775 10.197,32.215 10.642,31.515L10.642,31.514ZM20.117,33.44L20.117,31.657L15.863,31.657L15.863,28.769L19.671,28.769L19.671,26.988L15.864,26.988L15.864,24.358L19.973,24.358L19.973,22.576L13.896,22.576L13.896,33.44L20.118,33.44L20.117,33.44ZM38.409,24.358L38.409,33.44L40.491,33.44L40.491,24.358L43.321,24.358L43.321,22.576L35.579,22.576L35.579,24.358L38.409,24.358ZM52.011,33.44L54.219,33.44L51.984,29.298C53.389,28.823 54.331,27.486 54.307,26.003C54.307,23.953 52.79,22.577 50.535,22.577L46.269,22.577L46.269,33.44L48.238,33.44L48.238,29.537L49.946,29.537L52.011,33.44ZM52.292,26.046C52.292,26.863 51.803,27.735 50.432,27.735L48.238,27.735L48.238,24.358L50.432,24.358C51.803,24.358 52.292,25.23 52.292,26.046ZM65.197,33.44L67.39,33.44L63.008,22.576L61.091,22.576L56.694,33.44L58.843,33.44L59.763,30.998L64.279,30.998L65.197,33.44ZM63.599,29.217L60.446,29.217L62.022,25.029L63.599,29.217ZM72.26,31.656L72.26,22.574L70.174,22.574L70.174,33.44L77.24,33.44L77.24,31.657L72.259,31.657L72.26,31.656ZM30.621,22.576L30.621,30.046L25.317,22.576L23.395,22.576L23.395,33.44L25.407,33.44L25.407,25.969L30.71,33.44L32.634,33.44L32.634,22.576L30.621,22.576Z" style="fill:rgb(18,18,20);fill-rule:nonzero;"/>
        </g>
        <g transform="matrix(1,0,0,1,27.9852,7.97075)">
            <path d="M125.028,22.575L125.028,28.806C125.078,29.589 124.851,30.366 124.388,30.999C123.921,31.484 123.277,31.758 122.604,31.758C121.934,31.758 121.292,31.487 120.826,31.006C120.37,30.367 120.149,29.59 120.2,28.806L120.2,22.576L118.116,22.576L118.116,28.905C118.108,29.578 118.212,30.247 118.425,30.886C118.615,31.448 118.92,31.965 119.32,32.404C119.716,32.827 120.203,33.157 120.745,33.367C121.339,33.595 121.97,33.708 122.606,33.7C123.239,33.707 123.868,33.592 124.457,33.36C124.997,33.144 125.485,32.813 125.885,32.39C126.29,31.952 126.6,31.435 126.796,30.873C127.014,30.239 127.12,29.574 127.112,28.904L127.112,22.575L125.028,22.575ZM113.338,23.984C112.818,23.467 112.206,23.054 111.533,22.766C110.834,22.466 110.081,22.313 109.321,22.317C108.555,22.313 107.795,22.465 107.09,22.766C106.409,23.055 105.789,23.471 105.263,23.991C104.737,24.512 104.319,25.131 104.029,25.811C103.432,27.226 103.432,28.825 104.029,30.24C104.317,30.913 104.73,31.524 105.248,32.045C105.766,32.56 106.378,32.971 107.051,33.255C108.473,33.845 110.074,33.843 111.494,33.248C112.174,32.96 112.793,32.547 113.321,32.031C114.399,30.968 115.006,29.516 115.004,28.002C115.003,27.242 114.851,26.489 114.555,25.788C114.267,25.115 113.854,24.503 113.338,23.984ZM112.849,28.015C112.856,28.998 112.481,29.946 111.804,30.659C111.484,30.999 111.099,31.273 110.672,31.465C109.794,31.853 108.791,31.853 107.913,31.465C107.487,31.273 107.102,30.999 106.781,30.659C106.102,29.947 105.727,28.998 105.737,28.015C105.735,27.516 105.829,27.022 106.015,26.558C106.365,25.67 107.046,24.951 107.915,24.554C108.79,24.158 109.796,24.158 110.672,24.554C111.54,24.951 112.221,25.67 112.572,26.558C112.757,27.021 112.85,27.516 112.849,28.015ZM85.266,27.404L85.266,29.186L88.062,29.186C88.007,29.528 87.9,29.86 87.743,30.169C87.581,30.49 87.361,30.778 87.095,31.019C86.828,31.256 86.517,31.441 86.18,31.562C85.81,31.694 85.421,31.759 85.03,31.756C84.076,31.768 83.16,31.38 82.504,30.688C82.182,30.343 81.929,29.939 81.759,29.498C81.397,28.531 81.397,27.465 81.759,26.498C81.929,26.059 82.181,25.654 82.503,25.31C82.818,24.977 83.197,24.713 83.619,24.534C84.066,24.345 84.545,24.251 85.03,24.256C85.59,24.251 86.143,24.387 86.638,24.65C87.147,24.932 87.581,25.33 87.904,25.812L87.974,25.915L88.075,25.842L89.498,24.822L89.591,24.755L89.529,24.657C89.071,23.924 88.425,23.326 87.659,22.925C86.85,22.511 85.952,22.301 85.044,22.314C84.269,22.308 83.501,22.456 82.784,22.748C82.107,23.026 81.492,23.436 80.976,23.955C79.908,25.04 79.316,26.506 79.331,28.028C79.324,28.801 79.471,29.567 79.764,30.282C80.042,30.953 80.448,31.562 80.963,32.075C81.481,32.584 82.096,32.989 82.768,33.263C83.485,33.556 84.254,33.703 85.029,33.697C85.768,33.707 86.503,33.569 87.189,33.292C87.819,33.033 88.387,32.641 88.853,32.143C89.327,31.626 89.689,31.018 89.919,30.356C90.176,29.612 90.303,28.83 90.293,28.044L90.293,27.404L85.266,27.404ZM135.156,22.576L130.891,22.576L130.891,33.44L132.859,33.44L132.859,29.537L135.156,29.537C136.188,29.584 137.198,29.214 137.957,28.511C138.277,28.178 138.527,27.785 138.694,27.354C138.861,26.924 138.942,26.465 138.93,26.004C138.929,23.953 137.414,22.576 135.156,22.576ZM132.859,24.358L135.054,24.358C136.425,24.358 136.914,25.229 136.914,26.043C136.914,26.859 136.425,27.733 135.054,27.733L132.859,27.733L132.859,24.358ZM101.271,26.002C101.271,23.952 99.754,22.576 97.499,22.576L93.233,22.576L93.233,33.44L95.201,33.44L95.201,29.537L96.911,29.537L98.975,33.44L101.184,33.44L98.95,29.298C100.354,28.822 101.296,27.484 101.271,26.001L101.271,26.002ZM95.2,24.355L97.395,24.355C98.767,24.355 99.255,25.227 99.255,26.043C99.255,26.859 98.767,27.733 97.395,27.733L95.2,27.733L95.2,24.355Z" style="fill:rgb(18,18,20);fill-rule:nonzero;"/>
        </g>
    </g>
</svg>
