<?xml version="1.0" encoding="UTF-8" standalone="no"?>
<!DOCTYPE svg PUBLIC "-//W3C//DTD SVG 1.1//EN" "http://www.w3.org/Graphics/SVG/1.1/DTD/svg11.dtd">
<svg width="100%" height="100%" viewBox="0 0 219 77" version="1.1" xmlns="http://www.w3.org/2000/svg" xmlns:xlink="http://www.w3.org/1999/xlink" xml:space="preserve" xmlns:serif="http://www.serif.com/" style="fill-rule:evenodd;clip-rule:evenodd;stroke-linejoin:round;stroke-miterlimit:2;">
    <g transform="matrix(0.0607995,0,0,0.0607995,34.8854,21.8393)">
        <g transform="matrix(22.4617,0,0,22.4617,-64.3228,-354.894)">
            <path d="M-0,17.644L-0,34.527L7.879,34.527L7.879,24.397L12.381,24.397L12.381,34.527L20.259,34.527L20.259,17.644L-0,17.644Z" style="fill:rgb(18,18,20);fill-rule:nonzero;"/>
        </g>
        <g transform="matrix(22.4617,0,0,22.4617,-64.3228,-354.894)">
            <path d="M29.263,17.647L32.667,17.647L40.518,28.084L40.518,17.647L44.157,17.647L44.157,34.524L41.022,34.524L32.904,23.868L32.904,34.525L29.263,34.525L29.263,17.647ZM45.927,28.18C45.927,32.108 48.777,34.813 52.634,34.813C54.954,34.813 56.678,33.903 57.872,32.417L55.792,30.573C54.787,31.508 53.901,31.892 52.681,31.892C51.05,31.892 49.904,31.03 49.544,29.378L58.473,29.378C58.501,29.044 58.522,28.705 58.522,28.422C58.522,24.781 56.559,21.454 52.277,21.454C48.541,21.454 45.929,24.47 45.929,28.13L45.929,28.18M49.494,27.101C49.78,25.452 50.763,24.371 52.275,24.371C53.804,24.371 54.764,25.471 54.978,27.101L49.494,27.101ZM60.794,30.883C60.794,33.853 62.301,34.739 64.524,34.739C65.745,34.739 66.636,34.451 67.402,33.996L67.402,31.073C66.873,31.365 66.275,31.534 65.603,31.534C64.792,31.534 64.431,31.124 64.431,30.285L64.431,24.802L67.45,24.802L67.45,21.691L64.431,21.691L64.431,18.412L60.793,18.412L60.793,21.691L59.262,21.691L59.262,24.803L60.793,24.803L60.794,30.883M86.564,38.355L90.199,38.355L90.199,32.849C91.061,33.877 92.259,34.764 94.197,34.764C97.241,34.764 100.042,32.418 100.042,28.129L100.042,28.084C100.042,23.798 97.194,21.453 94.197,21.453C92.308,21.453 91.086,22.336 90.199,23.534L90.199,21.692L86.564,21.692L86.564,38.355ZM96.397,28.13C96.397,30.285 94.962,31.676 93.263,31.676C91.564,31.676 90.152,30.261 90.152,28.13L90.152,28.084C90.152,25.953 91.565,24.541 93.263,24.541C94.962,24.541 96.397,25.953 96.397,28.084L96.397,28.13M101.521,38.355L105.16,38.355L105.16,32.849C106.02,33.877 107.219,34.764 109.16,34.764C112.198,34.764 115,32.418 115,28.129L115,28.084C115,23.798 112.152,21.453 109.16,21.453C107.268,21.453 106.046,22.336 105.16,23.534L105.16,21.692L101.521,21.692L101.521,38.355ZM111.363,28.13C111.363,30.285 109.923,31.676 108.223,31.676C106.528,31.676 105.112,30.261 105.112,28.13L105.112,28.084C105.112,25.953 106.528,24.541 108.223,24.541C109.923,24.541 111.363,25.953 111.363,28.084L111.363,28.13M68.333,34.525L72.091,34.525L73.624,30.763L80.268,30.763L81.811,34.525L85.652,34.525L78.649,17.645L75.335,17.645L68.333,34.525ZM74.718,27.513L76.947,22.071L79.173,27.513L74.718,27.513Z" style="fill:rgb(18,18,20);fill-rule:nonzero;"/>
        </g>
    </g>
</svg>
