<?xml version="1.0" encoding="UTF-8" standalone="no"?>
<!DOCTYPE svg PUBLIC "-//W3C//DTD SVG 1.1//EN" "http://www.w3.org/Graphics/SVG/1.1/DTD/svg11.dtd">
<svg width="100%" height="100%" viewBox="0 0 218 77" version="1.1" xmlns="http://www.w3.org/2000/svg" xmlns:xlink="http://www.w3.org/1999/xlink" xml:space="preserve" xmlns:serif="http://www.serif.com/" style="fill-rule:evenodd;clip-rule:evenodd;stroke-linejoin:round;stroke-miterlimit:2;">
    <g transform="matrix(1.48912,0,0,1.48912,45.8583,20.6307)">
        <path d="M23.494,0.021L0.602,0.021C0.602,0.021 0.602,0.021 0.602,0.021C0.31,0.021 0.07,0.262 0.07,0.553C0.07,0.554 0.07,0.554 0.07,0.554L0.07,23.446C0.07,23.587 0.126,23.722 0.226,23.822C0.326,23.922 0.461,23.978 0.602,23.978L23.494,23.978C23.494,23.978 23.494,23.978 23.495,23.978C23.786,23.978 24.027,23.738 24.027,23.446C24.027,23.446 24.027,23.446 24.027,23.446L24.027,0.554C24.027,0.554 24.027,0.554 24.027,0.553C24.027,0.262 23.786,0.021 23.495,0.021C23.494,0.021 23.494,0.021 23.494,0.021ZM16.041,8.539L16.041,15.46C16.041,15.752 15.801,15.993 15.509,15.993L8.588,15.993C8.447,15.992 8.311,15.936 8.211,15.837C8.112,15.737 8.056,15.601 8.056,15.46L8.056,8.539C8.056,8.247 8.296,8.007 8.588,8.007L15.509,8.007C15.65,8.007 15.785,8.063 15.885,8.163C15.985,8.263 16.041,8.398 16.041,8.539ZM71.421,8.008L64.5,8.008C64.208,8.008 63.967,8.248 63.967,8.54L63.967,15.461C63.967,15.753 64.208,15.993 64.5,15.993L71.421,15.993C71.713,15.993 71.953,15.753 71.953,15.461L71.953,8.54C71.953,8.248 71.713,8.008 71.421,8.008ZM63.432,0.022L56.511,0.022C56.219,0.022 55.979,0.262 55.979,0.554L55.979,7.475C55.979,7.767 56.219,8.008 56.511,8.008L63.432,8.008C63.724,8.008 63.964,7.767 63.964,7.475L63.964,0.554C63.964,0.262 63.724,0.022 63.432,0.022ZM79.403,0.022L72.482,0.022C72.19,0.022 71.95,0.262 71.95,0.554L71.95,7.475C71.95,7.767 72.19,8.008 72.482,8.008L79.403,8.008C79.695,8.008 79.935,7.767 79.935,7.475L79.935,0.554C79.935,0.262 79.695,0.022 79.403,0.022ZM63.432,15.993L56.511,15.993C56.219,15.993 55.979,16.233 55.979,16.525L55.979,23.446C55.979,23.738 56.219,23.979 56.511,23.979L63.432,23.979C63.724,23.979 63.964,23.738 63.964,23.446L63.964,16.525C63.964,16.233 63.724,15.993 63.432,15.993ZM79.403,15.993L72.482,15.993C72.19,15.993 71.95,16.233 71.95,16.525L71.95,23.446C71.95,23.738 72.19,23.979 72.482,23.979L79.403,23.979C79.695,23.979 79.935,23.738 79.935,23.446L79.935,16.525C79.935,16.233 79.695,15.993 79.403,15.993ZM51.444,0.022L44.523,0.022C44.231,0.022 43.99,0.262 43.99,0.554L43.99,7.475C43.99,7.767 44.231,8.008 44.523,8.008L51.444,8.008C51.736,8.008 51.976,7.767 51.976,7.475L51.976,0.554C51.976,0.262 51.736,0.022 51.444,0.022ZM51.444,15.993L44.523,15.993C44.231,15.993 43.99,16.233 43.99,16.525L43.99,23.446C43.99,23.738 44.231,23.979 44.523,23.979L51.444,23.979C51.736,23.979 51.976,23.738 51.976,23.446L51.976,16.525C51.976,16.233 51.736,15.993 51.444,15.993ZM43.99,8.533C43.99,8.241 43.75,8.001 43.458,8.001L36.005,8.001L36.005,0.554C36.005,0.262 35.764,0.021 35.472,0.021L28.551,0.021C28.259,0.021 28.019,0.262 28.019,0.553C28.019,0.554 28.019,0.554 28.019,0.554L28.019,23.434C28.019,23.434 28.019,23.434 28.019,23.434C28.019,23.726 28.259,23.966 28.551,23.966L35.473,23.966C35.765,23.966 36.005,23.726 36.005,23.434L36.005,15.987L43.458,15.987C43.75,15.986 43.99,15.746 43.99,15.454L43.99,8.533Z" style="fill:rgb(18,18,20);fill-rule:nonzero;"/>
    </g>
</svg>
