<?xml version="1.0" encoding="UTF-8" standalone="no"?>
<!DOCTYPE svg PUBLIC "-//W3C//DTD SVG 1.1//EN" "http://www.w3.org/Graphics/SVG/1.1/DTD/svg11.dtd">
<svg width="100%" height="100%" viewBox="0 0 219 77" version="1.1" xmlns="http://www.w3.org/2000/svg" xmlns:xlink="http://www.w3.org/1999/xlink" xml:space="preserve" xmlns:serif="http://www.serif.com/" style="fill-rule:evenodd;clip-rule:evenodd;stroke-linejoin:round;stroke-miterlimit:2;">
    <g transform="matrix(1,0,0,1,49.5,10.5)">
        <path d="M0.974,19.6L7.997,19.6L12.086,30.063L16.229,19.6L23.067,19.6L12.771,44.369L5.888,44.369L8.707,37.806L0.974,19.6ZM30.192,19.184C24.915,19.184 21.578,23.917 21.578,28.629C21.578,33.933 25.236,38.138 30.092,38.138C33.713,38.138 35.079,35.931 35.079,35.931L35.079,37.649L41.205,37.649L41.205,19.6L35.079,19.6L35.079,21.241C35.079,21.241 33.556,19.183 30.192,19.183L30.192,19.184ZM31.495,24.984C33.929,24.984 35.185,26.911 35.185,28.649C35.185,30.521 33.84,32.358 31.495,32.358C29.551,32.358 27.794,30.769 27.794,28.729C27.794,26.659 29.206,24.984 31.495,24.984ZM43.315,37.649L43.315,11.632L49.721,11.632L49.721,21.305C49.721,21.305 51.243,19.187 54.431,19.187C58.329,19.187 60.614,22.093 60.614,26.243L60.614,37.651L54.253,37.651L54.253,27.805C54.253,26.401 53.583,25.044 52.067,25.044C50.524,25.044 49.72,26.422 49.72,27.805L49.72,37.651L43.316,37.651L43.315,37.649ZM71.537,19.186C65.493,19.186 61.895,23.781 61.895,28.704C61.895,34.307 66.252,38.138 71.558,38.138C76.703,38.138 81.205,34.481 81.205,28.799C81.205,22.581 76.492,19.186 71.537,19.186ZM71.594,25.038C73.728,25.038 75.204,26.816 75.204,28.712C75.204,30.328 73.829,32.322 71.594,32.322C69.546,32.322 68.008,30.68 68.008,28.694C68.008,26.78 69.286,25.038 71.594,25.038ZM91.878,19.185C85.836,19.185 82.236,23.781 82.236,28.704C82.236,34.307 86.594,38.138 91.902,38.138C97.046,38.138 101.547,34.481 101.547,28.799C101.547,22.581 96.835,19.186 91.879,19.186L91.879,19.185L91.878,19.185ZM91.937,25.038C94.072,25.038 95.547,26.816 95.547,28.712C95.547,30.328 94.172,32.322 91.937,32.322C89.888,32.322 88.352,30.68 88.352,28.694C88.352,26.78 89.629,25.038 91.937,25.038ZM102.347,33.779C102.347,31.444 104.269,29.523 106.603,29.523C108.938,29.523 110.859,31.444 110.859,33.779C110.859,36.113 108.938,38.034 106.604,38.034C104.269,38.034 102.348,36.113 102.348,33.779L102.347,33.779ZM112.257,27.961L104.597,27.961L111.396,11.631L119.026,11.631L112.257,27.961Z" style="fill:rgb(18,18,20);"/>
    </g>
</svg>
