<?xml version="1.0" encoding="UTF-8"?> <svg xmlns="http://www.w3.org/2000/svg" width="218" height="77" viewBox="0 0 218 77" fill="none"><path fill-rule="evenodd" clip-rule="evenodd" d="M67.9715 34.0407H67.7695V39.1402H67.9715C71.9246 39.1402 73.912 37.9439 75.872 36.7635L75.8737 36.7624C77.8113 35.5954 79.722 34.4447 83.564 34.4447H83.766V29.3452H83.564C79.6109 29.3452 77.6235 30.5415 75.6635 31.7219L75.6618 31.7229C73.7242 32.8899 71.8135 34.0407 67.9715 34.0407ZM67.9715 38.9382V34.2427V38.9382Z" fill="#121214"></path><path fill-rule="evenodd" clip-rule="evenodd" d="M67.9715 43.2546H67.7695V48.3541H67.9715C71.9246 48.3541 73.912 47.1578 75.872 45.9774L75.8737 45.9763C77.8113 44.8094 79.722 43.6586 83.564 43.6586H83.766V38.5591H83.564C79.6109 38.5591 77.6235 39.7554 75.6635 40.9358L75.6618 40.9368C73.7242 42.1038 71.8135 43.2546 67.9715 43.2546Z" fill="#121214"></path><path fill-rule="evenodd" clip-rule="evenodd" d="M52.202 34.0429H52V39.1424H52.202C56.1988 39.1424 58.2081 37.9466 60.1902 36.7662L60.192 36.7651C62.1517 35.5981 64.0849 34.4469 67.9717 34.4469H68.1737V29.3474H67.9717C63.9749 29.3474 61.9657 30.5432 59.9835 31.7236L59.9817 31.7247C58.022 32.8916 56.0888 34.0429 52.202 34.0429Z" fill="#121214"></path><path fill-rule="evenodd" clip-rule="evenodd" d="M52.202 43.2546H52V48.3541H52.202C56.1988 48.3541 58.2081 47.1583 60.1902 45.9779L60.192 45.9768C62.1517 44.8098 64.0849 43.6586 67.9717 43.6586H68.1737V38.5591H67.9717C63.9749 38.5591 61.9657 39.7549 59.9835 40.9353L59.9817 40.9364C58.022 42.1033 56.0888 43.2546 52.202 43.2546ZM67.9717 43.4566V38.7611C64.0293 38.7611 62.058 39.935 60.0868 41.1089C58.1156 42.2827 56.1444 43.4566 52.202 43.4566C56.1444 43.4566 58.1156 42.2827 60.0869 41.1088C62.0241 39.9552 63.9614 38.8015 67.7697 38.7621C67.8365 38.7614 67.9038 38.7611 67.9717 38.7611V43.4566Z" fill="#121214"></path><path fill-rule="evenodd" clip-rule="evenodd" d="M105.423 42.0707L105.427 42.0062H101.068L101.062 42.0605C100.95 43.1306 100.519 43.9323 99.8895 44.4668C99.259 45.0018 98.4238 45.2732 97.4968 45.2732C96.2001 45.2732 95.1831 44.842 94.4887 43.9974C93.7928 43.151 93.4141 41.881 93.4141 40.1907V39.9319C93.4141 38.324 93.8163 37.0777 94.5129 36.2344C95.2084 35.3925 96.202 34.9464 97.3997 34.9464C98.3453 34.9464 99.1072 35.1706 99.6719 35.6322C100.236 36.0936 100.611 36.7983 100.771 37.7745L100.78 37.8253H105.332L105.326 37.7594C105.114 35.3174 104.095 33.659 102.63 32.6126C101.168 31.5678 99.2689 31.1377 97.3027 31.1377C94.8771 31.1377 92.6765 31.9755 91.082 33.5037C89.4871 35.0323 88.502 37.2481 88.502 39.9966V40.2554C88.502 43.0354 89.4461 45.2033 91.0178 46.676C92.5889 48.148 94.7816 48.9202 97.2703 48.9202C99.7418 48.9202 101.715 48.2214 103.104 47.0131C104.494 45.8044 105.293 44.0904 105.423 42.0707Z" fill="#121214"></path><path fill-rule="evenodd" clip-rule="evenodd" d="M133.295 38.3187H135.145V37.7C135.145 36.7006 134.991 35.942 134.583 35.4331C134.179 34.9275 133.512 34.6553 132.454 34.6553C131.541 34.6553 130.886 34.8871 130.435 35.2908C129.983 35.6947 129.729 36.2779 129.633 36.9964L129.626 37.0489H125.072L125.077 36.9839C125.224 34.9613 126.099 33.4968 127.462 32.5396C128.823 31.5839 130.666 31.1377 132.745 31.1377C134.823 31.1377 136.612 31.5593 137.881 32.5659C139.153 33.5747 139.895 35.163 139.895 37.4735V48.5644H135.209V46.6506C134.737 47.2745 134.146 47.824 133.372 48.226C132.536 48.6598 131.491 48.9202 130.155 48.9202C128.609 48.9202 127.178 48.5462 126.132 47.7184C125.084 46.8888 124.43 45.6089 124.43 43.8135C124.43 41.8171 125.349 40.4389 126.921 39.5636C128.488 38.6909 130.702 38.3187 133.295 38.3187ZM131.547 45.532C130.698 45.532 130.1 45.3318 129.714 44.9893C129.33 44.6479 129.148 44.1569 129.148 43.5547C129.148 43.1109 129.245 42.7464 129.429 42.4484C129.613 42.1504 129.887 41.9147 130.247 41.7327C130.971 41.3675 132.035 41.2217 133.392 41.2217H135.145V42.5843C135.145 43.5035 134.757 44.2382 134.116 44.7444C133.473 45.2518 132.573 45.532 131.547 45.532Z" fill="#121214"></path><path fill-rule="evenodd" clip-rule="evenodd" d="M150.949 36.4495L150.958 36.499H155.382L155.374 36.4319C155.162 34.4758 154.345 33.1486 153.102 32.3125C151.862 31.4782 150.205 31.1377 148.322 31.1377C146.581 31.1377 144.893 31.5765 143.638 32.4628C142.381 33.3506 141.561 34.6865 141.561 36.4708C141.561 38.1322 142.002 39.3006 143.019 40.1364C144.032 40.9683 145.608 41.4633 147.86 41.8032V41.8033C149.074 41.9812 149.921 42.1903 150.465 42.4957C150.736 42.6477 150.928 42.8221 151.054 43.026C151.179 43.2296 151.239 43.4668 151.239 43.7488C151.239 44.3146 151.036 44.7559 150.617 45.0583C150.195 45.363 149.546 45.532 148.646 45.532C147.634 45.532 146.955 45.3152 146.505 44.9203C146.055 44.5257 145.824 43.9441 145.728 43.1912L145.721 43.1383H141.234L141.237 43.2016C141.319 45.0447 142.03 46.4775 143.3 47.4481C144.569 48.4172 146.388 48.9202 148.678 48.9202C150.919 48.9202 152.714 48.4417 153.951 47.4966C155.19 46.5497 155.86 45.1398 155.86 43.296C155.86 41.4691 155.271 40.2763 154.139 39.4662C153.014 38.6604 151.358 38.2385 149.237 37.9311C148.006 37.7531 147.199 37.5601 146.7 37.2831C146.453 37.1454 146.284 36.9886 146.176 36.8051C146.069 36.6215 146.02 36.4064 146.02 36.1473C146.02 35.6487 146.229 35.23 146.623 34.9342C147.018 34.6372 147.602 34.4612 148.354 34.4612C149.156 34.4612 149.74 34.6216 150.154 34.9457C150.567 35.2691 150.821 35.7629 150.949 36.4495ZM141.301 43.2595C141.299 43.2394 141.298 43.2192 141.298 43.1989L141.301 43.2595Z" fill="#121214"></path><path fill-rule="evenodd" clip-rule="evenodd" d="M166.959 48.4316L167 48.4174V44.6611L166.916 44.6955C166.374 44.9185 165.864 45.0144 165.159 45.0144C164.571 45.0144 164.119 44.8557 163.815 44.5397C163.51 44.2233 163.342 43.7395 163.342 43.0695V34.9787H166.903V31.5258H163.342V27.8706H158.56V31.5258H156.391V34.9787H158.56V43.4901C158.56 45.2636 159.04 46.6159 159.978 47.5244C160.916 48.4325 162.301 48.8879 164.091 48.8879C165.361 48.8879 166.306 48.66 166.959 48.4316Z" fill="#121214"></path><path fill-rule="evenodd" clip-rule="evenodd" d="M114.845 48.9202C117.4 48.9202 119.649 48.0665 121.26 46.5382C122.871 45.0096 123.84 42.8099 123.84 40.126V39.8672C123.84 37.2156 122.879 35.032 121.276 33.5116C119.673 31.9914 117.432 31.1377 114.878 31.1377C112.323 31.1377 110.074 32.0078 108.463 33.5481C106.852 35.0887 105.883 37.2965 105.883 39.9642V40.223C105.883 42.8748 106.852 45.0503 108.459 46.5627C110.066 48.0746 112.307 48.9202 114.845 48.9202ZM114.878 45.2409C113.567 45.2409 112.549 44.7624 111.858 43.8891C111.165 43.0138 110.795 41.735 110.795 40.126V39.8672C110.795 38.2587 111.181 36.9963 111.882 36.1371C112.581 35.2796 113.599 34.817 114.878 34.817C116.172 34.817 117.19 35.2953 117.885 36.1689C118.582 37.0443 118.96 38.3231 118.96 39.9319V40.1583C118.96 41.7508 118.582 43.0215 117.885 43.8929C117.19 44.7625 116.172 45.2409 114.878 45.2409Z" fill="#121214"></path></svg> 