<?xml version="1.0" encoding="UTF-8"?> <svg xmlns="http://www.w3.org/2000/svg" width="218" height="77" viewBox="0 0 218 77" fill="none"><path d="M96.6713 46.0318V38.9876C96.6713 37.0894 95.5573 35.5032 93.621 35.5032C91.6846 35.5032 90.4645 37.0894 90.4645 38.9876V46.0318H87.7324V33.189H90.2788L90.4645 34.9052C91.2072 33.501 92.7456 32.981 94.1249 32.981C95.796 32.981 97.4936 33.657 98.2363 35.5552C99.2973 33.657 100.942 33.007 102.719 33.007C106.324 33.007 108.26 35.2432 108.26 38.9356V46.0318H105.501V38.9356C105.501 37.0374 104.547 35.5292 102.61 35.5292C100.674 35.5292 99.4273 37.0894 99.4273 38.9876V46.0318H96.6713Z" fill="black"></path><path d="M124.494 39.6378C124.494 43.4316 121.815 46.2919 117.706 46.2919C113.597 46.2919 110.969 43.4316 110.969 39.6378C110.969 35.844 113.648 32.9551 117.706 32.9551C121.764 32.9551 124.494 35.8674 124.494 39.6378ZM113.701 39.6378C113.701 41.926 115.213 43.7982 117.706 43.7982C120.199 43.7982 121.735 41.9286 121.735 39.6378C121.735 37.347 120.093 35.4253 117.706 35.4253C115.213 35.4253 113.701 37.3756 113.701 39.6378Z" fill="black"></path><path d="M135.739 36.3611C134.704 35.425 133.59 35.165 132.29 35.165C130.619 35.139 129.508 35.685 129.508 36.6991C129.532 37.7652 130.672 38.1813 132.344 38.3373C134.757 38.5453 137.914 39.0654 137.887 42.3651C137.861 44.7574 135.712 46.4216 132.317 46.4216C130.195 46.4216 128.073 45.9535 126.352 44.0553L127.784 42.1597C129.001 43.4833 130.832 44.0293 132.37 44.0553C133.67 44.0553 135.129 43.5873 135.155 42.3911C135.182 41.2496 134.068 40.8076 132.131 40.6255C129.665 40.3915 126.826 39.6114 126.802 36.7771C126.779 33.9428 129.797 32.8767 132.237 32.8767C134.253 32.8767 135.818 33.3188 137.277 34.5929L135.739 36.3611Z" fill="black"></path><path d="M151.126 33.2149H153.778V46.0317H151.179L151.046 43.9515C150.171 45.5896 148.155 46.3697 146.537 46.3697C142.717 46.3957 139.826 43.9775 139.826 39.609C139.826 35.3185 142.823 32.9263 146.59 32.9263C148.447 32.9263 150.224 33.7844 151.046 35.2405L151.126 33.2149ZM142.558 39.6116C142.558 42.2613 144.468 43.8734 146.802 43.8734C152.452 43.8734 152.452 35.3731 146.802 35.3731C144.468 35.3731 142.558 36.9853 142.558 39.6116Z" fill="black"></path><path d="M160.567 29.4446C160.567 31.6548 157.172 31.6548 157.172 29.4446C157.172 27.2343 160.567 27.2603 160.567 29.4446ZM157.49 33.163V46.0318H160.222V33.163H157.49Z" fill="black"></path><path d="M174.999 44.3676C174.357 45.0169 173.585 45.5297 172.731 45.8742C171.878 46.2186 170.962 46.3873 170.039 46.3698C166.273 46.3698 163.143 44.0556 163.143 39.6377C163.143 35.2198 166.246 32.903 170.039 32.903C170.917 32.8819 171.79 33.0397 172.603 33.3665C173.416 33.6932 174.15 34.1818 174.76 34.8012L173.015 36.5954C172.221 35.8559 171.166 35.4459 170.071 35.4513C167.71 35.4513 165.88 37.0894 165.88 39.6377C165.88 42.3394 167.79 43.7696 170.044 43.7696C170.617 43.7859 171.188 43.6884 171.721 43.4828C172.254 43.2772 172.74 42.9679 173.148 42.5734L174.999 44.3676Z" fill="black"></path><path d="M48.4997 37.4957L53.3932 42.2928C53.5071 42.4044 53.5711 42.5559 53.5711 42.7138C53.5711 42.8717 53.5071 43.0232 53.3932 43.1349L48.496 47.9357C48.3821 48.0473 48.2276 48.1101 48.0665 48.1101C47.9054 48.1101 47.7509 48.0473 47.637 47.9357L42.6498 43.0466C42.5602 42.9588 42.5099 42.8398 42.5099 42.7157C42.5099 42.5915 42.5602 42.4725 42.6498 42.3847L47.6388 37.4938C47.6954 37.4384 47.7626 37.3944 47.8365 37.3645C47.9105 37.3346 47.9897 37.3192 48.0697 37.3194C48.1497 37.3196 48.2288 37.3352 48.3026 37.3655C48.3764 37.3957 48.4434 37.44 48.4997 37.4957Z" fill="black"></path><path d="M60.3403 35.4947L55.4412 30.6921C55.204 30.4595 54.8194 30.4595 54.5822 30.6921L49.6831 35.4947C49.4459 35.7272 49.4459 36.1042 49.6832 36.3368L54.5822 41.1394C54.8194 41.372 55.204 41.372 55.4412 41.1394L60.3403 36.3368C60.5775 36.1042 60.5775 35.7272 60.3403 35.4947Z" fill="black"></path><path d="M67.3598 42.2168L62.4608 37.4142C62.2235 37.1817 61.839 37.1817 61.6017 37.4142L56.7027 42.2168C56.4655 42.4494 56.4655 42.8264 56.7027 43.059L61.6017 47.8616C61.839 48.0941 62.2235 48.0941 62.4608 47.8616L67.3598 43.059C67.597 42.8264 67.597 42.4494 67.3598 42.2168Z" fill="black"></path><path d="M74.2993 35.4163L69.4002 30.6137C69.163 30.3811 68.7784 30.3811 68.5412 30.6137L63.6421 35.4163C63.4049 35.6488 63.4049 36.0259 63.6421 36.2584L68.5412 41.061C68.7784 41.2936 69.163 41.2936 69.4002 41.061L74.2993 36.2584C74.5365 36.0259 74.5365 35.6488 74.2993 35.4163Z" fill="black"></path><path d="M81.2251 42.2393L76.326 37.4367C76.0888 37.2041 75.7042 37.2041 75.467 37.4367L70.5679 42.2393C70.3307 42.4718 70.3307 42.8489 70.5679 43.0814L75.467 47.884C75.7042 48.1166 76.0888 48.1166 76.326 47.884L81.2251 43.0814C81.4623 42.8489 81.4623 42.4718 81.2251 42.2393Z" fill="black"></path></svg> 