<?xml version="1.0" encoding="UTF-8" standalone="no"?>
<!DOCTYPE svg PUBLIC "-//W3C//DTD SVG 1.1//EN" "http://www.w3.org/Graphics/SVG/1.1/DTD/svg11.dtd">
<svg width="100%" height="100%" viewBox="0 0 219 77" version="1.1" xmlns="http://www.w3.org/2000/svg" xmlns:xlink="http://www.w3.org/1999/xlink" xml:space="preserve" xmlns:serif="http://www.serif.com/" style="fill-rule:evenodd;clip-rule:evenodd;stroke-linejoin:round;stroke-miterlimit:2;">
    <g transform="matrix(1.18859,0,0,1.18859,-14.7085,-4.85954)">
        <path d="M149.566,34.03L145.601,34.03C145.473,33.364 145.294,32.902 145.012,32.646C144.577,32.21 143.861,32.005 142.863,32.005C141.866,32.005 141.2,32.159 140.817,32.492C140.535,32.748 140.382,33.082 140.382,33.517C140.382,34.133 141.226,34.594 142.863,34.978C144.757,35.388 146.112,35.747 146.957,36.029C147.187,36.106 147.366,36.183 147.494,36.26C149.183,37.054 150.001,38.259 150.001,39.874C150.001,41.847 149.183,43.283 147.545,44.205C147.34,44.308 147.136,44.41 146.931,44.513C145.882,44.974 144.654,45.205 143.273,45.205C141.2,45.205 139.537,44.846 138.258,44.103C137.465,43.642 136.851,43.052 136.467,42.334C136.058,41.617 135.879,40.797 135.879,39.848L140.049,39.848C140.049,40.566 140.305,41.13 140.817,41.514C141.328,41.924 142.198,42.129 143.401,42.129C144.322,42.129 145.012,41.924 145.447,41.565C145.805,41.258 145.959,40.925 145.959,40.54C145.959,39.899 145.14,39.387 143.503,39.028C141.072,38.515 139.537,38.08 138.898,37.772C137.235,37.003 136.416,35.773 136.416,34.107C136.416,32.774 136.851,31.621 137.721,30.698C138.821,29.519 140.458,28.955 142.633,28.955C144.424,28.955 145.857,29.211 146.957,29.724C147.059,29.775 147.136,29.801 147.213,29.852C147.98,30.288 148.569,30.852 148.978,31.544C149.362,32.236 149.566,33.056 149.566,34.03Z" style="fill:rgb(18,18,20);fill-rule:nonzero;"/>
    </g>
    <g transform="matrix(1.18859,0,0,1.18859,-14.7085,-4.85954)">
        <path d="M147.445,24.316C147.445,24.239 147.419,24.162 147.394,24.111C147.343,24.034 147.291,24.008 147.215,23.983C147.164,23.957 147.087,23.957 146.959,23.931L146.319,23.931L146.319,24.7L146.959,24.7C147.138,24.675 147.266,24.649 147.317,24.598C147.394,24.521 147.445,24.418 147.445,24.316ZM147.778,23.906C147.854,24.008 147.906,24.136 147.906,24.265C147.906,24.444 147.829,24.623 147.701,24.752C147.573,24.88 147.394,24.982 147.164,24.982C147.266,25.034 147.317,25.059 147.394,25.11L147.778,25.623L148.085,26.136L147.599,26.136L147.368,25.726C147.215,25.469 147.087,25.264 146.984,25.187C146.959,25.162 146.959,25.162 146.933,25.136L146.601,25.034L146.345,25.034L146.345,26.136L145.936,26.136L145.936,23.547L146.831,23.547C146.882,23.547 146.933,23.573 146.984,23.573C147.215,23.573 147.368,23.598 147.471,23.649C147.573,23.701 147.675,23.778 147.778,23.906Z" style="fill:rgb(18,18,20);fill-rule:nonzero;"/>
    </g>
    <g transform="matrix(1.18859,0,0,1.18859,-14.7085,-4.85954)">
        <path d="M148.925,24.854C148.925,24.496 148.848,24.162 148.669,23.855C148.49,23.547 148.234,23.291 147.927,23.112C147.62,22.958 147.288,22.855 146.955,22.855L146.93,22.855C146.597,22.855 146.265,22.958 145.958,23.112C145.65,23.291 145.395,23.547 145.216,23.855C145.036,24.162 144.934,24.496 144.934,24.854C144.934,25.188 145.036,25.521 145.216,25.854C145.369,26.162 145.625,26.392 145.932,26.572C146.239,26.751 146.572,26.828 146.93,26.828L146.955,26.828C147.288,26.828 147.62,26.751 147.953,26.572C148.26,26.392 148.516,26.136 148.669,25.854C148.848,25.521 148.925,25.188 148.925,24.854ZM149.335,24.854C149.335,25.265 149.232,25.649 149.028,26.033C148.823,26.418 148.541,26.7 148.158,26.905C147.774,27.136 147.39,27.212 146.981,27.212L146.955,27.212C146.546,27.212 146.162,27.11 145.778,26.905C145.395,26.7 145.113,26.418 144.909,26.033C144.678,25.649 144.602,25.265 144.602,24.854C144.602,24.419 144.704,24.034 144.909,23.65C145.139,23.265 145.42,22.983 145.804,22.778C146.188,22.573 146.572,22.471 146.955,22.471L146.981,22.471C147.39,22.471 147.774,22.573 148.158,22.778C148.541,22.983 148.848,23.265 149.053,23.65C149.232,24.009 149.335,24.419 149.335,24.854Z" style="fill:rgb(18,18,20);fill-rule:nonzero;"/>
    </g>
    <g transform="matrix(1.18859,0,0,1.18859,-14.7085,-4.85954)">
        <path d="M134.189,29.519L134.189,44.949L130.454,44.949L130.454,44.103C129.2,44.923 127.691,45.41 126.079,45.41L126.028,45.41C121.576,45.384 117.943,41.745 117.943,37.259C117.943,32.8 121.576,29.135 126.028,29.109L126.079,29.109C127.691,29.109 129.2,29.596 130.454,30.416L130.454,29.519L134.189,29.519ZM130.454,38.105L130.454,36.414C130.045,34.363 128.228,32.8 126.079,32.8L126.028,32.8C123.572,32.825 121.602,34.825 121.602,37.259C121.602,39.72 123.597,41.719 126.028,41.745L126.079,41.745C128.228,41.745 130.045,40.156 130.454,38.105Z" style="fill:rgb(18,18,20);fill-rule:nonzero;"/>
    </g>
    <g transform="matrix(1.18859,0,0,1.18859,-14.7085,-4.85954)">
        <path d="M116.64,24.213L116.64,44.949L112.905,44.949L112.905,44.103C111.626,44.923 110.142,45.41 108.53,45.41L108.479,45.41C104.027,45.384 100.395,41.745 100.395,37.259C100.395,32.8 104.027,29.135 108.479,29.109L108.53,29.109C110.142,29.109 111.651,29.596 112.905,30.416L112.905,24.213L116.64,24.213ZM112.905,38.105L112.905,36.414C112.496,34.363 110.679,32.8 108.53,32.8L108.479,32.8C106.023,32.825 104.053,34.825 104.053,37.259C104.053,39.72 106.049,41.719 108.479,41.745L108.53,41.745C110.679,41.745 112.496,40.156 112.905,38.105Z" style="fill:rgb(18,18,20);fill-rule:nonzero;"/>
    </g>
    <g transform="matrix(1.18859,0,0,1.18859,-14.7085,-4.85954)">
        <rect x="94.846" y="29.109" width="4.068" height="15.84" style="fill:rgb(18,18,20);fill-rule:nonzero;"/>
    </g>
    <g transform="matrix(1.18859,0,0,1.18859,-14.7085,-4.85954)">
        <rect x="94.846" y="24.315" width="4.068" height="3.588" style="fill:rgb(18,18,20);fill-rule:nonzero;"/>
    </g>
    <g transform="matrix(1.18859,0,0,1.18859,-14.7085,-4.85954)">
        <path d="M92.975,24.213L92.975,44.949L89.239,44.949L89.239,44.103C87.96,44.923 86.451,45.41 84.839,45.41L84.788,45.41C80.336,45.384 76.703,41.745 76.703,37.259C76.703,32.8 80.336,29.135 84.788,29.109L84.839,29.109C86.451,29.109 87.96,29.596 89.239,30.416L89.239,24.213L92.975,24.213ZM89.239,38.105L89.239,36.414C88.83,34.363 87.013,32.8 84.839,32.8L84.788,32.8C82.332,32.825 80.362,34.825 80.362,37.259C80.362,39.72 82.357,41.719 84.788,41.745L84.839,41.745C87.039,41.745 88.856,40.156 89.239,38.105Z" style="fill:rgb(18,18,20);fill-rule:nonzero;"/>
    </g>
    <g transform="matrix(1.18859,0,0,1.18859,-14.7085,-4.85954)">
        <path d="M75.246,37.259L75.246,44.949L71.51,44.949L71.51,44.103C70.231,44.923 68.722,45.41 67.11,45.41L67.059,45.41C62.633,45.384 59,41.719 59,37.259C59,32.8 62.633,29.135 67.085,29.109L67.136,29.109C68.747,29.109 70.257,29.596 71.536,30.416L71.536,29.519L75.271,29.519L75.271,37.259L75.246,37.259ZM71.51,38.105L71.51,36.414C71.101,34.363 69.285,32.8 67.11,32.8L67.059,32.8C64.628,32.825 62.633,34.825 62.633,37.259C62.633,39.72 64.628,41.719 67.059,41.745L67.11,41.745C69.31,41.745 71.127,40.156 71.51,38.105Z" style="fill:rgb(18,18,20);fill-rule:nonzero;"/>
    </g>
</svg>
