<?xml version="1.0" encoding="UTF-8"?> <svg xmlns="http://www.w3.org/2000/svg" width="219" height="77" viewBox="0 0 219 77" fill="none"><path d="M70.7377 36.4936C70.6615 36.5947 70.573 36.6863 70.4743 36.7666C70.3671 36.8349 70.2407 36.8685 70.113 36.8625C69.9375 36.855 69.7678 36.7987 69.6238 36.7002C69.4506 36.5895 69.2474 36.4714 69.0066 36.3386C68.7356 36.1915 68.4508 36.0704 68.1561 35.9771C67.7511 35.8578 67.3293 35.803 66.9066 35.8147C66.3208 35.8011 65.7394 35.9171 65.2056 36.1542C64.7243 36.3766 64.3057 36.711 63.9863 37.1281C63.6303 37.5835 63.3741 38.106 63.2336 38.6629C63.0631 39.3285 62.9821 40.0132 62.9927 40.6994C62.9798 41.4017 63.0685 42.1022 63.2562 42.7801C63.4053 43.3362 63.6607 43.8595 64.0088 44.3223C64.3277 44.7257 64.7372 45.0514 65.2056 45.2741C65.6991 45.4946 66.2363 45.6055 66.7787 45.5988C67.2568 45.615 67.7339 45.5449 68.1862 45.3922C68.5019 45.2808 68.8027 45.1321 69.0818 44.9494C69.3227 44.7797 69.5334 44.6322 69.7065 44.4994C69.8554 44.3679 70.0482 44.2945 70.2485 44.2928C70.4701 44.2816 70.6815 44.3852 70.8054 44.5658L71.656 45.643C71.3256 46.038 70.9405 46.3857 70.5119 46.676C70.102 46.9549 69.6599 47.1853 69.1947 47.3623C68.7283 47.5401 68.2438 47.6687 67.7496 47.7459C67.2514 47.8196 66.7482 47.8566 66.2443 47.8566C65.3988 47.866 64.5606 47.7027 63.783 47.377C63.0209 47.0558 62.3381 46.5776 61.7809 45.9751C61.1882 45.3169 60.7308 44.5528 60.4337 43.7246C60.0937 42.7514 59.9282 41.7279 59.9444 40.6994C59.933 39.7302 60.083 38.7657 60.3885 37.8439C60.6612 37.0115 61.1014 36.2413 61.6831 35.5786C62.2724 34.9409 62.9969 34.4373 63.8056 34.1029C64.7291 33.731 65.7202 33.5477 66.7185 33.5643C67.6489 33.5482 68.573 33.7164 69.4356 34.0586C70.216 34.3837 70.9242 34.8549 71.5205 35.4458L70.7377 36.4936Z" fill="#121214"></path><path fill-rule="evenodd" clip-rule="evenodd" d="M82.7581 34.0586C81.852 33.7117 80.8856 33.5412 79.913 33.5569C78.9379 33.5414 77.9691 33.7118 77.0604 34.0586C76.2425 34.3764 75.5034 34.862 74.8927 35.4827C74.2734 36.1293 73.799 36.896 73.5002 37.7332C73.1669 38.6823 73.0039 39.6809 73.0185 40.6846C73.0039 41.6883 73.1669 42.6869 73.5002 43.6361C73.799 44.4733 74.2734 45.2399 74.8927 45.8865C75.4989 46.5162 76.2389 47.0074 77.0604 47.3254C78.8982 47.9946 80.9202 47.9946 82.7581 47.3254C83.5783 47.0093 84.3163 46.5177 84.9182 45.8865C85.5352 45.2395 86.007 44.4728 86.3031 43.6361C86.6391 42.6874 86.8046 41.6888 86.7924 40.6846C86.8046 39.6805 86.6391 38.6819 86.3031 37.7332C86.007 36.8964 85.5352 36.1298 84.9182 35.4827C84.3115 34.8607 83.5745 34.3749 82.7581 34.0586ZM82.7728 44.3148C82.0952 45.1776 81.0206 45.6489 79.9127 45.5691C78.7978 45.6525 77.7148 45.1812 77.03 44.3148C76.3327 43.2433 76.0007 41.9824 76.0816 40.714C76.0006 39.4409 76.3325 38.1753 77.03 37.0985C77.7106 36.2254 78.7948 35.7481 79.9127 35.8294C81.0235 35.7517 82.0993 36.229 82.7728 37.0985C83.4612 38.1786 83.7876 39.4429 83.7062 40.714C83.7879 41.9805 83.4614 43.2402 82.7728 44.3148Z" fill="#121214"></path><path d="M92.4521 35.6085C92.7484 35.3069 93.068 35.0282 93.408 34.7747C93.7341 34.525 94.0845 34.3076 94.4542 34.1254C94.8276 33.9281 95.2245 33.7769 95.6359 33.6753C96.0816 33.5681 96.5393 33.5161 96.9982 33.5203C97.7003 33.5086 98.3973 33.6392 99.0454 33.904C99.6252 34.1446 100.14 34.5133 100.551 34.9813C100.969 35.4691 101.279 36.037 101.461 36.6488C101.667 37.3612 101.761 38.1002 101.74 38.8403V47.6946H98.7745V38.8403C98.83 38.0486 98.5951 37.2635 98.1121 36.6267C97.5927 36.0923 96.8523 35.8205 96.1025 35.8889C95.4565 35.8838 94.8197 36.0386 94.2509 36.3389C93.6554 36.6638 93.1146 37.077 92.6478 37.5638V47.6946H89.6973V33.7712H91.4962C91.8505 33.7611 92.1639 33.9946 92.2488 34.332L92.4521 35.6085Z" fill="#121214"></path><path fill-rule="evenodd" clip-rule="evenodd" d="M117.268 47.6945V28.0674H114.288V35.0328C113.333 34.0423 111.989 33.5043 110.6 33.5571C108.864 33.5295 107.214 34.296 106.136 35.6305C105.59 36.3148 105.179 37.093 104.924 37.9252C104.634 38.8549 104.491 39.8231 104.503 40.7955C104.489 41.8232 104.616 42.848 104.879 43.8429C105.096 44.6395 105.461 45.39 105.956 46.0564C106.398 46.6338 106.969 47.1034 107.627 47.4289C108.303 47.745 109.045 47.9041 109.794 47.8937C110.711 47.9143 111.617 47.698 112.421 47.2665C113.189 46.8388 113.875 46.2818 114.446 45.6211L114.709 47.1337C114.794 47.471 115.108 47.7046 115.462 47.6945H117.268ZM112.887 36.088C113.432 36.333 113.904 36.7117 114.257 37.1874L114.242 43.6289C113.831 44.1742 113.321 44.6397 112.736 45.0013C112.138 45.3324 111.459 45.4981 110.772 45.4809C110.303 45.4943 109.836 45.4114 109.402 45.2375C108.997 45.0552 108.648 44.7698 108.394 44.4111C108.088 43.9628 107.871 43.4622 107.754 42.9353C107.588 42.209 107.512 41.4658 107.528 40.7218C107.443 39.42 107.789 38.1263 108.514 37.0325C109.163 36.1952 110.19 35.7236 111.261 35.7707C111.82 35.7654 112.373 35.8735 112.887 36.088Z" fill="#121214"></path><path d="M132.848 33.771V47.6944H131.042C130.688 47.7046 130.374 47.471 130.289 47.1337L130.071 45.8424C129.781 46.1476 129.467 46.429 129.13 46.6836C128.806 46.9381 128.456 47.1582 128.084 47.3403C127.294 47.7237 126.422 47.9183 125.54 47.9084C124.839 47.9225 124.142 47.7944 123.493 47.5321C122.914 47.2899 122.399 46.9214 121.987 46.4548C121.564 45.9528 121.251 45.3699 121.069 44.743C120.86 44.046 120.759 43.3223 120.768 42.5958V33.7415H123.779V42.5958C123.731 43.3752 123.966 44.1461 124.441 44.7725C124.95 45.326 125.693 45.6152 126.451 45.5546C127.091 45.558 127.722 45.4059 128.287 45.1119C128.887 44.796 129.428 44.3846 129.89 43.8945V33.771H132.848Z" fill="#121214"></path><path d="M146.494 36.4939C146.418 36.595 146.33 36.6866 146.231 36.7669C146.124 36.8352 145.997 36.8687 145.87 36.8628C145.692 36.8543 145.52 36.7981 145.373 36.7005C145.207 36.5898 145.004 36.4717 144.763 36.3389C144.492 36.1917 144.207 36.0707 143.913 35.9774C143.508 35.8581 143.086 35.8033 142.663 35.815C142.077 35.8006 141.496 35.9167 140.962 36.1544C140.481 36.3769 140.062 36.7112 139.743 37.1284C139.387 37.5838 139.131 38.1063 138.99 38.6632C138.817 39.3285 138.734 40.0131 138.742 40.6997C138.731 41.4023 138.822 42.1029 139.013 42.7804C139.159 43.3375 139.415 43.8613 139.765 44.3225C140.084 44.7259 140.494 45.0517 140.962 45.2744C141.456 45.4949 141.993 45.6058 142.535 45.599C143.011 45.6153 143.486 45.5453 143.935 45.3924C144.253 45.281 144.557 45.1324 144.838 44.9497C145.079 44.78 145.29 44.6324 145.456 44.4996C145.608 44.3683 145.803 44.295 146.005 44.293C146.227 44.2819 146.438 44.3855 146.562 44.566L147.413 45.6433C147.082 46.0383 146.697 46.386 146.269 46.6763C145.859 46.9552 145.417 47.1855 144.951 47.3625C144.485 47.5403 144 47.6689 143.506 47.7462C143.008 47.8199 142.505 47.8569 142.001 47.8569C141.155 47.8663 140.317 47.7029 139.54 47.3773C138.778 47.056 138.095 46.5779 137.538 45.9753C136.942 45.319 136.485 44.5543 136.19 43.7249C135.847 42.7526 135.681 41.7284 135.701 40.6997C135.69 39.7305 135.84 38.7659 136.145 37.8441C136.415 37.0105 136.855 36.2397 137.44 35.5789C138.027 34.9421 138.749 34.4385 139.555 34.1032C140.481 33.7305 141.474 33.5472 142.475 33.5646C143.403 33.5485 144.325 33.7166 145.185 34.0589C145.967 34.384 146.678 34.8551 147.277 35.4461L146.494 36.4939Z" fill="#121214"></path><path fill-rule="evenodd" clip-rule="evenodd" d="M168.826 34.0587C167.923 33.711 166.959 33.5406 165.988 33.557L165.981 33.5865C165.006 33.5695 164.037 33.7399 163.128 34.0882C162.307 34.4043 161.565 34.89 160.953 35.5123C160.336 36.1594 159.864 36.926 159.568 37.7628C159.232 38.7115 159.067 39.7101 159.079 40.7142C159.067 41.7184 159.232 42.717 159.568 43.6657C159.864 44.5024 160.336 45.2691 160.953 45.9161C161.561 46.5467 162.304 47.0379 163.128 47.355C164.964 48.0237 166.983 48.0237 168.819 47.355C169.642 47.0409 170.383 46.5492 170.986 45.9161C171.601 45.2566 172.073 44.4807 172.371 43.6361C172.704 42.687 172.867 41.6884 172.853 40.6847C172.867 39.681 172.704 38.6824 172.371 37.7333C172.069 36.8992 171.598 36.1337 170.986 35.4828C170.381 34.8594 169.643 34.3733 168.826 34.0587ZM168.834 44.3444C168.159 45.2071 167.087 45.6787 165.981 45.5987C164.864 45.6806 163.78 45.2099 163.091 44.3444C162.4 43.2706 162.07 42.0109 162.15 40.7436C162.071 39.4717 162.4 38.2074 163.091 37.1281C163.776 36.256 164.861 35.7793 165.981 35.859C167.09 35.7811 168.163 36.2587 168.834 37.1281C169.525 38.2074 169.854 39.4717 169.775 40.7436C169.854 42.0109 169.525 43.2706 168.834 44.3444Z" fill="#121214"></path><path d="M178.512 36.3461C178.89 35.547 179.439 34.8373 180.123 34.2653C180.762 33.7644 181.563 33.5028 182.381 33.5275C182.672 33.5269 182.963 33.5616 183.246 33.6308C183.512 33.6921 183.766 33.7942 183.999 33.9333L183.788 36.1469C183.77 36.2692 183.709 36.3814 183.615 36.4642C183.524 36.5303 183.412 36.5618 183.299 36.5527C183.099 36.5467 182.9 36.522 182.704 36.4789C182.434 36.4311 182.159 36.4064 181.884 36.4051C181.51 36.3983 181.137 36.4583 180.785 36.5822C180.466 36.7004 180.173 36.8756 179.919 37.0987C179.655 37.3424 179.429 37.6234 179.25 37.9325C179.039 38.2894 178.858 38.6619 178.708 39.0467V47.6944H175.697V33.771H177.436C177.665 33.7477 177.896 33.8082 178.083 33.9407C178.227 34.1074 178.317 34.3133 178.339 34.531L178.512 36.3461Z" fill="#121214"></path><path d="M157.048 45.2077C156.979 45.0459 156.82 44.9389 156.641 44.9347C156.549 44.9383 156.46 44.9691 156.385 45.0232C156.303 45.0823 156.197 45.1413 156.077 45.2151C155.939 45.2878 155.796 45.3495 155.648 45.3996C155.454 45.4628 155.25 45.4928 155.046 45.4881C154.67 45.5056 154.305 45.363 154.045 45.097C153.777 44.7759 153.645 44.3668 153.676 43.9534V36.073H157.605V33.9627H153.676V29.4028V29.2478H150.846V33.9554H148.512V36.0656H150.665V44.1821C150.602 45.1813 150.943 46.1648 151.613 46.9195C152.34 47.6026 153.326 47.9559 154.331 47.8935C154.992 47.8962 155.648 47.789 156.272 47.5762C156.875 47.3762 157.433 47.0629 157.913 46.6539L157.048 45.2077Z" fill="#121214"></path><path d="M54.9546 44.8392C54.9546 46.5834 53.5123 47.9973 51.7332 47.9973C49.954 47.9973 48.5117 46.5834 48.5117 44.8392C48.5117 43.0951 49.954 41.6812 51.7332 41.6812C52.5881 41.6792 53.4087 42.0113 54.0133 42.604C54.6178 43.1967 54.9566 44.0011 54.9546 44.8392Z" fill="#121214"></path><path d="M40.4428 30.931C40.4428 32.6751 39.0006 34.0889 37.2214 34.0889C35.4423 34.0889 34 32.6751 34 30.931C34 29.1869 35.4423 27.7729 37.2214 27.7729C39.0006 27.7729 40.4428 29.1869 40.4428 30.931Z" fill="#121214"></path><path d="M47.6695 30.9305C47.6695 32.6746 46.2272 34.0885 44.4481 34.0885C42.6689 34.0885 41.2266 32.6746 41.2266 30.9305C41.2266 29.1864 42.6689 27.7725 44.4481 27.7725C45.3024 27.7725 46.1218 28.1052 46.7259 28.6974C47.3301 29.2897 47.6695 30.0929 47.6695 30.9305Z" fill="#121214"></path><path d="M40.4428 37.8883C40.4428 39.6324 39.0006 41.0463 37.2214 41.0463C35.4423 41.0463 34 39.6324 34 37.8883C34 36.1441 35.4423 34.7302 37.2214 34.7302C38.0758 34.7302 38.8952 35.063 39.4993 35.6552C40.1034 36.2475 40.4428 37.0507 40.4428 37.8883Z" fill="#121214"></path><path d="M47.6695 37.8883C47.6695 39.6324 46.2272 41.0463 44.4481 41.0463C42.6689 41.0463 41.2266 39.6324 41.2266 37.8883C41.2266 36.1441 42.6689 34.7302 44.4481 34.7302C45.3024 34.7302 46.1218 35.063 46.7259 35.6552C47.3301 36.2475 47.6695 37.0507 47.6695 37.8883Z" fill="#121214"></path><path d="M54.9546 38.1024C54.9546 39.8465 53.5123 41.2604 51.7332 41.2604C49.954 41.2604 48.5117 39.8465 48.5117 38.1024C48.5117 36.3582 49.954 34.9443 51.7332 34.9443C52.5881 34.9423 53.4087 35.2744 54.0133 35.8671C54.6178 36.4598 54.9566 37.2642 54.9546 38.1024Z" fill="#121214"></path><path d="M47.6695 44.8392C47.6695 46.5834 46.2272 47.9973 44.4481 47.9973C42.6689 47.9973 41.2266 46.5834 41.2266 44.8392C41.2266 43.0951 42.6689 41.6812 44.4481 41.6812C45.3024 41.6812 46.1218 42.0139 46.7259 42.6062C47.3301 43.1984 47.6695 44.0017 47.6695 44.8392Z" fill="#121214"></path></svg> 