<?xml version="1.0" encoding="UTF-8" standalone="no"?>
<!DOCTYPE svg PUBLIC "-//W3C//DTD SVG 1.1//EN" "http://www.w3.org/Graphics/SVG/1.1/DTD/svg11.dtd">
<svg width="100%" height="100%" viewBox="0 0 219 77" version="1.1" xmlns="http://www.w3.org/2000/svg" xmlns:xlink="http://www.w3.org/1999/xlink" xml:space="preserve" xmlns:serif="http://www.serif.com/" style="fill-rule:evenodd;clip-rule:evenodd;stroke-linejoin:round;stroke-miterlimit:2;">
    <g transform="matrix(0.0607995,0,0,0.0607995,34.8854,21.8393)">
        <path d="M2469.1,255.902C2488.23,246.397 2500.82,227.657 2499.97,205.397C2500.82,175.738 2476.3,151.222 2446.66,152.087C2438.19,151.222 2430.71,152.882 2424.21,154.893L2126.79,272.737C2106.97,282.206 2093.17,301.671 2093.12,323.241C2093.17,354.596 2117.7,379.123 2149.24,379.357C2157.03,379.079 2164.68,377.167 2171.69,373.745L2469.1,255.902ZM0,177.34L0,443.89L196.406,443.89L196.406,382.163L78.562,382.163L78.562,340.076L190.794,340.076L190.794,278.348L78.562,278.348L78.562,239.067L196.406,239.067L196.406,177.34L0,177.34ZM507.849,177.34L583.606,177.34L583.606,443.89L507.849,443.89L507.849,177.34ZM434.899,309.212C451.909,294.797 462.337,274.443 462.956,250.29C462.337,211.278 429.603,178.544 390.006,177.34L246.91,177.34L246.91,443.89L325.472,443.89L325.472,239.067L364.754,239.067C378.385,238.225 389.141,248.618 390.006,261.513C389.184,275.038 378.278,285.944 364.754,286.766L325.472,286.766L325.472,345.687L364.754,345.687L401.229,443.89L476.985,443.89L434.899,328.853C434.162,326.549 433.075,325.088 432.093,323.241C428.691,320.704 426.364,313.97 434.899,309.212ZM1579.66,177.34L1579.66,443.89L1658.23,443.89L1658.23,300.795L1742.4,443.89L1826.57,443.89L1826.57,177.34L1750.82,177.34L1750.82,317.629L1669.45,177.34L1579.66,177.34ZM1422.54,227.844C1452.8,229.142 1476.86,265.231 1475.85,309.212C1476.86,354.257 1452.8,390.335 1422.54,390.58C1393.44,390.335 1369.39,354.257 1369.23,309.212C1369.39,265.231 1393.44,229.142 1422.54,227.844L1422.54,168.922C1351.21,169.214 1292.92,232.123 1293.47,309.212C1292.92,387.353 1351.21,450.273 1422.54,449.502C1495.02,450.273 1553.32,387.353 1554.41,309.212C1553.32,232.123 1495.02,169.214 1422.54,168.922L1422.54,227.844ZM611.664,306.406C612.085,431.03 727.531,448.567 749.148,449.502C768.449,448.567 799.138,447.105 838.933,435.473L838.933,373.745C766.988,404.726 692.459,387.19 693.032,306.406C692.459,226.441 771.372,203.059 833.322,247.484L833.322,182.951C799.138,166.526 766.988,169.448 746.342,168.922C726.07,169.448 612.085,182.6 611.664,306.406ZM1043.76,239.067L1043.76,185.757C1020.16,174.569 983.256,173.832 962.388,174.534C939.416,173.832 882.435,182.6 869.797,225.038C859.053,267.359 872.205,312.661 917.496,326.047C962.797,341.888 992.025,350.656 982.029,376.551C974.488,400.342 914.573,393.035 878.214,379.357L869.797,435.473C917.496,447.105 965.72,450.028 1001.67,441.084C1038.79,429.569 1059.25,400.342 1063.4,370.94C1068.02,338.965 1057.79,305.354 1024.12,292.377C987.64,279.05 978.872,279.05 953.971,267.125C929.198,255.668 937.966,224.98 976.417,225.038C997.87,223.518 1024.17,230.825 1043.76,239.067ZM2469.1,104.389C2488.23,94.417 2500.82,75.688 2499.97,53.884C2500.82,23.757 2476.3,-0.758 2446.66,0.574C2438.19,-0.758 2430.71,0.902 2424.21,3.38L2126.79,121.224C2106.97,130.226 2093.17,149.691 2093.12,171.728C2093.17,202.615 2117.7,227.142 2149.24,227.844C2156.96,227.116 2164.53,225.224 2171.69,222.232L2469.1,104.389ZM1262.61,239.067L1262.61,185.757C1237.89,174.569 1201,173.832 1178.43,174.534C1157.16,173.832 1100.16,182.6 1088.65,225.038C1076.78,267.359 1089.93,312.661 1136.35,326.047C1180.54,341.888 1209.77,350.656 1200.88,376.551C1192.23,400.342 1132.31,393.035 1097.07,379.357L1088.65,435.473C1135.24,447.105 1183.46,450.028 1220.52,441.084C1256.53,429.569 1276.99,400.342 1282.25,370.94C1285.76,338.965 1275.53,305.354 1240.16,292.377C1205.38,279.05 1196.61,279.05 1172.82,267.125C1146.93,255.668 1155.7,224.98 1195.27,225.038C1215.61,223.518 1241.92,230.825 1262.61,239.067ZM2469.1,407.415C2488.23,398.378 2500.82,379.637 2499.97,356.911C2500.82,327.719 2476.3,303.203 2446.66,303.6C2438.19,303.203 2430.71,304.851 2424.21,309.212L2126.79,427.055C2106.97,434.187 2093.17,453.64 2093.12,477.56C2093.17,506.576 2117.7,531.092 2149.24,530.87C2156.98,531.092 2165.51,528.906 2171.69,525.258L2469.1,407.415Z" style="fill:rgb(18,18,20);fill-rule:nonzero;"/>
    </g>
</svg>
