<?xml version="1.0" encoding="UTF-8" standalone="no"?>
<!DOCTYPE svg PUBLIC "-//W3C//DTD SVG 1.1//EN" "http://www.w3.org/Graphics/SVG/1.1/DTD/svg11.dtd">
<svg width="100%" height="100%" viewBox="0 0 218 77" version="1.1" xmlns="http://www.w3.org/2000/svg" xmlns:xlink="http://www.w3.org/1999/xlink" xml:space="preserve" xmlns:serif="http://www.serif.com/" style="fill-rule:evenodd;clip-rule:evenodd;stroke-linejoin:round;stroke-miterlimit:2;">
    <g transform="matrix(1,0,0,1,7.44092,2.52227)">
        <path d="M153.199,27.474C151.31,27.471 149.596,28.994 147.465,30.769C145.509,32.394 141.507,36.503 137.856,38.844C138.873,37.245 141.326,33.791 141.695,32.17C142.083,30.471 140.837,29.812 139.124,30.863C137.257,32.013 135.476,37.547 132.839,37.547C132.359,37.547 132.023,37.312 132.028,36.776C132.039,35.155 134.549,31.924 139.053,30.147C139.752,29.867 140.02,29.417 140.024,29.029C140.024,28.907 140.003,28.086 138.62,28.086C134.171,28.086 128.166,33.278 127.324,37.259C126.458,38.131 124.899,39.423 122.922,40.266C125.153,37.106 127.074,34.565 128.081,31.926C129.243,28.853 127.589,28.45 125.89,29.349C124.236,30.223 123.073,32.65 122.581,33.574C122.101,34.491 121.687,35.664 120.234,36.833C118.781,38.001 117.272,37.805 118.336,35.525C119.289,33.488 121.432,31.352 123.277,30.369C123.713,30.134 124.096,29.995 124.081,29.407C124.059,28.474 122.979,27.827 121.44,28.491C119.35,29.396 118.346,30 116.574,30C115.168,30 114.439,29.62 113.839,29.37C113.034,29.028 112.442,29.147 112.129,29.247C111.847,29.343 111.402,29.617 111.03,30.024C110.735,30.348 110.486,30.879 110.426,31.22C110.013,33.713 107.831,38.184 106.228,38.184C105.675,38.184 105.065,38.028 105.222,36.754C105.479,34.668 107.994,31.849 108.575,31.287C109.156,30.722 110.252,30.337 110.33,29.711C110.397,29.186 110.078,28.599 109.045,28.599C105.654,28.599 101.124,33.299 100.672,37.519C100.147,38.011 99.514,38.492 98.792,38.492C97.226,38.492 96.782,37.027 96.893,35.865C101.011,32.149 108.822,23.865 109.058,17.969C109.114,16.56 108.428,15.856 107.274,15.856C104.368,15.856 100.295,20.104 97.762,23.379C94.645,27.412 92.727,32.282 92.05,35.974C89.77,37.953 88.844,38.084 87.851,38.084C86.471,38.084 85.99,37.086 86.034,36.302C89.879,32.808 96.564,24.482 96.697,20.368C96.737,19.149 96.049,18.575 94.817,18.575C92.195,18.575 88.483,21.341 85.813,24.985C83.147,28.628 81.418,32.914 80.928,36.799C78.933,38.592 77.441,38.957 76.211,38.957C75.468,38.957 74.923,38.434 74.791,38.214C76.558,37.195 80.582,34.637 80.582,30.826C80.582,28.932 79.304,28.087 78.033,28.087C74.801,28.087 69.717,32.116 69.751,37.676C69.751,37.774 69.766,38.116 69.784,38.24C68.32,38.743 67.311,39.257 67.544,40.31C67.756,41.265 68.941,41.216 70.484,40.671C70.839,41.331 72.351,42.419 74.486,42.419C77.376,42.419 79.583,41.047 81.326,39.557C82.059,41.273 83.864,42.173 85.753,42.173C88.044,42.173 90.313,40.619 92.103,39.21C92.31,40.526 93.648,42.575 95.963,42.575C98.076,42.575 99.69,41.345 100.965,40.015C101.301,41.357 102.53,42.419 104.133,42.419C109.48,42.419 112.478,34.851 113.168,32.135C113.258,31.788 113.589,31.71 113.817,31.792C114.812,32.138 115.299,32.31 116.555,32.167C114.521,33.766 112.728,36.493 112.728,38.486C112.728,40.476 114.453,41.4 115.712,41.4C116.976,41.4 118.646,40.584 119.744,39.556C119.454,40.142 119.063,41.036 118.437,41.668C117.285,41.985 113.909,43.203 111.763,44.508C109.729,45.748 107.761,47.72 107.761,49.989C107.761,51.203 108.756,52.627 111.096,52.627C115.028,52.627 117.78,50.057 121.491,43.305C124.565,42.016 126.41,40.812 127.617,39.789C128.147,40.713 129.166,41.142 130.188,41.142C131.697,41.142 132.602,40.706 133.821,39.831C133.653,40.244 133.385,40.866 132.971,41.418C130.774,42.332 128.135,43.542 126.783,44.358C123.178,46.531 122.379,48.479 122.379,50.014C122.379,50.953 123.184,52.584 125.613,52.584C130.867,52.584 134.119,46.051 136.239,42.357C137.792,41.533 140.012,40.005 142.294,38.255C142.216,38.535 142.179,38.825 142.179,39.155C142.179,40.795 143.665,42.337 146.102,42.337C150.917,42.337 152.414,38.789 152.355,34.959C152.333,33.707 152.148,32.71 152.132,32.265C152.087,31.096 152.476,30.465 153.54,30.465C154.613,30.465 155.34,30.275 155.34,29.359C155.34,28.09 154.434,27.515 153.205,27.515L153.199,27.475L153.199,27.474ZM104.692,20.718C104.829,20.718 104.886,20.841 104.882,21.032C104.841,22.541 100.959,28.638 97.367,32.187C99.529,25.832 103.839,20.719 104.689,20.719L104.692,20.719L104.692,20.718ZM73.992,36.014C74.148,33.306 76.294,31.219 77.142,31.219C77.454,31.219 77.6,31.398 77.6,31.77C77.6,32.736 76.303,34.755 73.997,36.014L73.991,36.014L73.992,36.014ZM92.24,22.96C92.402,22.96 92.471,23.086 92.465,23.292C92.437,24.407 89.643,29.529 86.055,33.078C87.94,27.321 91.008,22.962 92.237,22.962L92.24,22.96ZM111.863,49.186C111.588,49.186 111.449,49.006 111.449,48.743C111.449,47.096 115.104,45.15 117.021,44.447C116.194,45.787 113.158,49.187 111.859,49.187L111.863,49.185L111.863,49.186ZM126.491,49.276C126.223,49.276 126.123,49.116 126.123,48.851C126.123,47.398 129.436,45.147 131.351,44.445C130.356,46.166 127.589,49.274 126.488,49.274L126.491,49.276ZM146.458,38.811C146.227,38.811 145.876,38.755 145.876,37.981C145.876,37.417 145.608,36.793 144.627,36.793C144.493,36.793 144.347,36.805 144.182,36.833C146.283,35.167 147.926,33.334 149.458,32.093C149.145,35.883 148.239,38.811 146.451,38.811" style="fill:rgb(18,18,20);fill-rule:nonzero;"/>
        <path d="M144.611,26.773C144.541,27.438 143.8,27.736 143.735,28.331C143.698,28.677 143.943,28.906 144.374,28.901C145.476,28.89 148.432,27.184 148.689,24.531C148.818,23.192 147.982,22.031 146.524,22.031C145.048,22.031 143.713,23.415 143.589,24.577C143.47,25.714 144.679,26.125 144.611,26.773ZM67.799,45.487C66.852,45.437 66.409,44.307 66.409,42.938C66.409,41.433 67.381,38.171 67.766,36.628C68.158,35.07 68.326,32.552 66.916,31.108C72.271,28.953 80.196,21.618 81.214,20.015C82.231,18.411 82.432,16.371 81.024,15.352C79.626,14.332 77.334,15.662 75.982,17.61C72.26,22.978 70.013,25.598 67.476,27.804C65.497,29.526 64.536,29.554 63.586,29.686C63.586,29.686 67.241,23.702 68.605,21.906C70.242,19.757 68.225,18.955 66.269,20.312C63.947,21.907 61.53,23.359 59.032,24.66C52.359,28.103 50.752,29.69 50.752,31.756C50.752,32.672 51.389,33.826 52.731,33.826C55.346,33.826 57.933,29.151 59.2,27.988C59.691,27.529 60.835,26.534 61.279,26.534C61.424,26.534 61.525,26.624 61.525,26.904C61.525,27.798 59.789,30.335 57.098,33.241C53.195,37.455 50,39.154 50,41.848C50,43.603 51.319,44.554 52.745,44.554C55.752,44.554 57.765,40.541 58.967,38.551C59.447,37.757 62.1,32.813 62.659,31.743C63.24,32.053 63.599,32.698 63.409,34.008C63.05,36.367 60.949,39.224 60.949,43.208C60.949,46.461 63.956,47.481 65.163,47.483C66.279,47.483 67.754,47.053 68.121,45.936C68.165,45.769 68.11,45.486 67.812,45.466L67.799,45.486L67.799,45.487ZM156.698,26.989C157.324,26.989 157.726,27.392 157.726,28.021C157.726,28.647 157.324,29.049 156.698,29.049C156.066,29.049 155.666,28.647 155.666,28.021C155.666,27.388 156.064,26.984 156.697,26.984L156.698,26.989ZM156.697,28.795C157.172,28.795 157.473,28.489 157.473,28.012C157.473,27.535 157.171,27.234 156.697,27.234C156.218,27.234 155.918,27.536 155.918,28.01C155.918,28.484 156.219,28.792 156.693,28.792L156.697,28.795ZM156.761,27.485C156.92,27.485 157.1,27.563 157.1,27.795C157.1,27.95 157,28.041 156.888,28.086C156.959,28.186 157.015,28.33 157.1,28.33L157.16,28.33C157.171,28.34 157.182,28.363 157.182,28.408C157.182,28.48 157.129,28.531 157.025,28.531C156.824,28.531 156.802,28.291 156.668,28.117L156.548,28.117L156.548,28.509C156.526,28.524 156.47,28.531 156.425,28.531C156.358,28.531 156.302,28.52 156.302,28.419L156.302,27.499C156.341,27.486 156.382,27.48 156.423,27.482L156.758,27.482L156.761,27.485ZM156.551,27.675L156.551,27.932L156.705,27.932C156.812,27.932 156.872,27.882 156.872,27.798C156.872,27.719 156.816,27.675 156.727,27.675L156.551,27.675Z" style="fill:rgb(18,18,20);fill-rule:nonzero;"/>
    </g>
</svg>
