<?xml version="1.0" encoding="UTF-8" standalone="no"?>
<!DOCTYPE svg PUBLIC "-//W3C//DTD SVG 1.1//EN" "http://www.w3.org/Graphics/SVG/1.1/DTD/svg11.dtd">
<svg width="100%" height="100%" viewBox="0 0 218 77" version="1.1" xmlns="http://www.w3.org/2000/svg" xmlns:xlink="http://www.w3.org/1999/xlink" xml:space="preserve" xmlns:serif="http://www.serif.com/" style="fill-rule:evenodd;clip-rule:evenodd;stroke-linejoin:round;stroke-miterlimit:2;">
    <g transform="matrix(0.405292,0,0,0.405292,-1.36796,2.86653)">
        <path d="M212.708,95.108L210.648,100.946L210.476,100.946C210.133,99.63 209.504,97.626 208.473,95.223L197.428,67.466L186.611,67.466L186.611,111.706L193.765,111.706L193.765,84.406L193.708,78.34C193.651,77.138 193.536,76.222 193.479,75.536L193.651,75.536C193.902,76.818 194.246,78.081 194.681,79.313L207.958,111.591L212.995,111.591L226.158,79.027C226.444,78.283 226.73,76.795 227.016,75.536L227.188,75.536L226.844,83.491L226.844,111.534L234.456,111.534L234.456,67.352L224.04,67.352L212.708,95.108ZM241.668,79.828L249.108,79.828L249.108,111.534L241.668,111.534L241.668,79.828ZM245.444,66.436C244.185,66.436 243.155,66.894 242.297,67.695C241.438,68.496 240.98,69.526 240.98,70.785C240.964,71.938 241.444,73.044 242.297,73.819C243.155,74.619 244.185,75.02 245.444,75.02C246.704,75.02 247.791,74.563 248.592,73.819C249.445,73.043 249.925,71.938 249.908,70.785C249.908,69.584 249.451,68.553 248.592,67.695C247.848,66.894 246.761,66.435 245.444,66.435M275.49,79.542C274.117,79.256 272.686,79.084 271.313,79.084C267.936,79.084 264.846,79.828 262.27,81.316C259.695,82.804 257.634,84.864 256.318,87.44C254.945,90.072 254.258,93.105 254.258,96.596C254.258,99.63 254.945,102.319 256.261,104.78C257.577,107.184 259.409,109.13 261.87,110.446C264.216,111.762 266.963,112.449 270.054,112.449C273.602,112.449 276.635,111.705 279.039,110.332L279.096,110.275L279.096,103.407L278.81,103.636C277.722,104.437 276.463,105.124 275.204,105.524C273.888,105.982 272.686,106.211 271.656,106.211C268.68,106.211 266.334,105.353 264.674,103.464C262.957,101.633 262.098,99.114 262.098,95.967C262.098,92.705 262.957,90.129 264.731,88.241C266.505,86.352 268.851,85.379 271.713,85.379C274.117,85.379 276.578,86.18 278.81,87.783L279.096,88.012L279.096,80.744L279.039,80.686C278.066,80.286 276.979,79.828 275.49,79.542M300.042,79.312C298.208,79.297 296.425,79.925 295.006,81.087C293.747,82.117 292.889,83.605 292.145,85.379L292.087,85.379L292.087,79.828L284.647,79.828L284.647,111.534L292.087,111.534L292.087,95.337C292.087,92.59 292.66,90.301 293.919,88.641C295.178,86.924 296.78,86.066 298.726,86.066C299.413,86.066 300.1,86.238 300.958,86.352C301.759,86.582 302.332,86.81 302.732,87.096L303.018,87.325L303.018,79.885L302.847,79.828C302.332,79.484 301.301,79.313 300.042,79.313M320.302,79.141C315.094,79.141 310.916,80.686 307.997,83.72C305.021,86.753 303.591,90.93 303.591,96.196C303.591,101.118 305.079,105.124 307.941,108.043C310.801,110.904 314.693,112.392 319.558,112.392C324.651,112.392 328.715,110.847 331.634,107.756C334.61,104.666 336.04,100.546 336.04,95.452C336.04,90.415 334.667,86.409 331.863,83.491C329.173,80.571 325.223,79.141 320.302,79.141M326.254,103.521C324.88,105.295 322.706,106.154 320.016,106.154C317.326,106.154 315.151,105.295 313.606,103.407C312.061,101.633 311.316,99.057 311.316,95.795C311.316,92.419 312.118,89.843 313.606,88.012C315.151,86.18 317.269,85.265 319.959,85.265C322.591,85.265 324.651,86.123 326.139,87.897C327.627,89.672 328.429,92.247 328.429,95.623C328.314,99.057 327.685,101.747 326.254,103.521M352.637,92.991C350.291,92.018 348.803,91.274 348.116,90.644C347.544,90.072 347.258,89.271 347.258,88.241C347.258,87.382 347.601,86.524 348.459,85.951C349.318,85.379 350.291,85.093 351.722,85.093C352.981,85.093 354.297,85.322 355.556,85.665C356.815,86.009 357.96,86.524 358.876,87.211L359.161,87.44L359.161,80.457L358.99,80.4C358.131,80.057 356.987,79.713 355.613,79.427C354.24,79.198 352.981,79.084 351.95,79.084C348.402,79.084 345.483,79.942 343.194,81.831C340.904,83.605 339.818,86.009 339.818,88.813C339.818,90.301 340.046,91.617 340.562,92.705C341.099,93.852 341.88,94.868 342.851,95.681C343.881,96.481 345.369,97.398 347.429,98.256C349.146,99 350.462,99.572 351.264,100.03C352.064,100.488 352.58,101.003 352.981,101.404C353.267,101.862 353.438,102.434 353.438,103.178C353.438,105.295 351.836,106.326 348.574,106.326C347.314,106.326 345.998,106.096 344.454,105.582C342.964,105.086 341.556,104.372 340.275,103.464L339.989,103.235L339.989,110.503L340.161,110.561C341.248,111.076 342.565,111.419 344.167,111.82C345.77,112.106 347.2,112.335 348.459,112.335C352.294,112.335 355.442,111.476 357.674,109.588C359.963,107.756 361.164,105.41 361.164,102.377C361.164,100.259 360.592,98.371 359.334,96.94C357.674,95.566 355.614,94.135 352.637,92.99M380.795,79.141C375.587,79.141 371.409,80.686 368.49,83.72C365.571,86.753 364.083,90.93 364.083,96.196C364.083,101.118 365.571,105.124 368.433,108.043C371.294,110.904 375.186,112.392 380.051,112.392C385.144,112.392 389.208,110.847 392.126,107.756C395.102,104.666 396.533,100.546 396.533,95.452C396.533,90.415 395.16,86.409 392.355,83.491C389.665,80.571 385.716,79.141 380.795,79.141M386.689,103.521C385.316,105.295 383.141,106.154 380.451,106.154C377.704,106.154 375.587,105.295 374.041,103.407C372.496,101.633 371.752,99.057 371.752,95.795C371.752,92.419 372.553,89.843 374.042,88.012C375.587,86.18 377.704,85.265 380.394,85.265C382.969,85.265 385.087,86.123 386.574,87.897C388.063,89.672 388.864,92.247 388.864,95.623C388.864,99.057 388.12,101.747 386.689,103.521M436.309,85.951L436.309,79.828L428.811,79.828L428.811,70.442L428.582,70.499L421.486,72.617L421.314,72.674L421.314,79.828L410.097,79.828L410.097,75.822C410.097,73.99 410.555,72.56 411.356,71.644C412.157,70.728 413.359,70.27 414.846,70.27C415.877,70.27 416.964,70.5 418.166,71.014L418.452,71.186L418.452,64.719L418.281,64.662C417.251,64.318 415.877,64.089 414.103,64.089C412.04,64.083 410.003,64.553 408.151,65.463C406.377,66.436 405.061,67.753 404.087,69.526C403.115,71.243 402.599,73.189 402.599,75.421L402.599,79.828L397.392,79.828L397.392,85.894L402.599,85.894L402.599,111.534L410.097,111.534L410.097,85.952L421.314,85.952L421.314,102.262C421.314,108.958 424.462,112.335 430.757,112.335C431.787,112.335 432.874,112.163 433.905,111.991C434.992,111.762 435.793,111.476 436.251,111.247L436.308,111.19L436.308,105.067L436.022,105.295C435.564,105.582 435.164,105.811 434.477,105.982C433.995,106.13 433.493,106.207 432.989,106.212C431.501,106.212 430.471,105.868 429.727,105.009C429.04,104.209 428.697,102.892 428.697,100.946L428.697,85.952L436.308,85.952L436.309,85.951ZM90.693,52.586L125.775,52.586L125.775,87.668L90.693,87.668L90.693,52.586ZM129.438,52.586L164.52,52.586L164.52,87.668L129.438,87.668L129.438,52.586ZM90.693,91.331L125.775,91.331L125.775,126.414L90.693,126.414L90.693,91.331ZM129.438,91.331L164.52,91.331L164.52,126.414L129.438,126.414L129.438,91.331Z" style="fill:rgb(18,18,20);fill-rule:nonzero;"/>
    </g>
</svg>
