<?xml version="1.0" encoding="UTF-8"?> <svg xmlns="http://www.w3.org/2000/svg" width="218" height="77" viewBox="0 0 218 77" fill="none"><path fill-rule="evenodd" clip-rule="evenodd" d="M35.6838 43.2869C34.6743 41.5214 34.6918 39.3498 35.719 37.5932L39.7309 30.7519C39.9065 30.443 40.2313 30.2488 40.5825 30.2488C40.9336 30.2488 41.2584 30.443 41.434 30.7519L45.446 37.5932C46.4731 39.3498 46.4819 41.5214 45.4811 43.2869C44.4803 45.0523 42.6016 46.1381 40.5825 46.1381C38.5545 46.1381 36.6846 45.0523 35.6838 43.2869Z" fill="#121214"></path><path fill-rule="evenodd" clip-rule="evenodd" d="M54.1209 43.1378C54.5158 43.5982 55.1171 43.97 55.9518 44.2445C56.7775 44.5189 57.6481 44.6517 58.5546 44.6517C59.3354 44.6517 60.0354 44.5543 60.6368 44.3596C61.2381 44.1648 61.7227 43.8992 62.0907 43.5539C62.4587 43.2086 62.7279 42.8191 62.9164 42.3941C63.1049 41.9691 63.1946 41.4911 63.1946 40.9864C63.1946 40.5172 63.1139 40.0922 62.9523 39.7204C62.7908 39.3485 62.5754 39.0387 62.3061 38.7996C62.0369 38.5606 61.7227 38.3481 61.3727 38.1622C61.0227 37.9763 60.6547 37.8346 60.2688 37.7284C59.8829 37.6221 59.4969 37.5159 59.12 37.4096C58.9061 37.3494 58.6951 37.2919 58.4886 37.2357H58.4885H58.4884L58.488 37.2356L58.4878 37.2355C58.3307 37.1927 58.1762 37.1507 58.025 37.1086C57.675 37.0112 57.3698 36.905 57.1006 36.7988C56.8313 36.6837 56.6159 36.542 56.4634 36.3738C56.3108 36.2056 56.23 36.002 56.23 35.7718C56.23 35.3379 56.4095 34.9927 56.7775 34.7271C57.1365 34.4615 57.6211 34.3287 58.2315 34.3287C59.2815 34.3287 60.206 34.5943 61.0317 35.1255C61.2022 35.2406 61.3907 35.3025 61.6061 35.3025C61.8753 35.3025 62.1176 35.2051 62.3241 35.0192C62.5305 34.8333 62.6382 34.6031 62.6382 34.3375C62.6382 34.1162 62.5664 33.9214 62.4318 33.7709C62.0548 33.3636 61.4894 33.0538 60.7175 32.8236C59.9457 32.5934 59.1828 32.4783 58.411 32.4783C57.1096 32.4783 56.0595 32.8059 55.2517 33.461C54.444 34.1162 54.0222 34.9218 54.0222 35.9134C54.0222 36.3826 54.1029 36.7988 54.2555 37.1617C54.4081 37.5247 54.6235 37.8258 54.8927 38.0559C55.162 38.2861 55.4671 38.4986 55.8261 38.6757C56.1762 38.8527 56.5441 38.9944 56.9301 39.1006C57.123 39.1538 57.3137 39.2047 57.5044 39.2556H57.5045C57.6952 39.3065 57.8859 39.3574 58.0789 39.4105C58.2527 39.4584 58.4229 39.5044 58.5894 39.5495L58.5901 39.5497L58.5905 39.5498L58.5909 39.5499C58.7936 39.6047 58.9909 39.6581 59.1828 39.7115C59.5328 39.8089 59.847 39.9152 60.1162 40.0391C60.3855 40.163 60.6009 40.3224 60.7534 40.5172C60.906 40.712 60.9868 40.9333 60.9868 41.1989C60.9868 41.6327 60.7893 42.0046 60.3944 42.3233C59.9995 42.642 59.4072 42.8014 58.6264 42.8014C57.4686 42.8014 56.4275 42.4472 55.4851 41.739C55.3235 41.615 55.1351 41.553 54.9197 41.553C54.6504 41.553 54.4171 41.6504 54.2106 41.854C54.0042 42.0577 53.8965 42.2879 53.8965 42.5623C53.9055 42.7659 53.9773 42.9519 54.1209 43.1378ZM67.9873 44.0586C68.2386 44.3065 68.5437 44.4304 68.9027 44.4304H75.0237C75.275 44.4304 75.4904 44.3419 75.6699 44.156C75.8494 43.9701 75.9391 43.7399 75.9391 43.4743C75.9391 43.2264 75.8494 43.0139 75.6699 42.8368C75.4904 42.6597 75.275 42.5712 75.0237 42.5712H69.7464V39.3486H74.898C75.1493 39.3486 75.3647 39.26 75.5442 39.083C75.7237 38.9059 75.8135 38.6846 75.8135 38.4367C75.8135 38.1711 75.7237 37.9497 75.5442 37.7638C75.3647 37.5779 75.1493 37.4894 74.898 37.4894H69.7464V34.4792H75.0237C75.275 34.4792 75.4904 34.3907 75.6699 34.2136C75.8494 34.0365 75.9391 33.8152 75.9391 33.5673C75.9391 33.3106 75.8494 33.0892 75.6699 32.9033C75.4904 32.7174 75.275 32.6289 75.0237 32.6289H68.9027C68.5437 32.6289 68.2386 32.7528 67.9873 33.0007C67.7359 33.2486 67.6103 33.5496 67.6103 33.8949V43.1644C67.6103 43.5097 67.7359 43.8018 67.9873 44.0586ZM81.782 44.4304C81.423 44.4304 81.1179 44.3065 80.8666 44.0586C80.6153 43.8018 80.4896 43.5097 80.4896 43.1644V33.8949C80.4896 33.5496 80.6153 33.2486 80.8666 33.0007C81.1179 32.7528 81.423 32.6289 81.782 32.6289H87.903C88.1543 32.6289 88.3697 32.7174 88.5492 32.9033C88.7287 33.0892 88.8184 33.3106 88.8184 33.5673C88.8184 33.8152 88.7287 34.0365 88.5492 34.2136C88.3697 34.3907 88.1543 34.4792 87.903 34.4792H82.6257V37.4894H87.7773C88.0286 37.4894 88.244 37.5779 88.4235 37.7638C88.603 37.9497 88.6928 38.1711 88.6928 38.4367C88.6928 38.6846 88.603 38.9059 88.4235 39.083C88.244 39.26 88.0286 39.3486 87.7773 39.3486H82.6257V42.5712H87.903C88.1543 42.5712 88.3697 42.6597 88.5492 42.8368C88.7287 43.0139 88.8184 43.2264 88.8184 43.4743C88.8184 43.7399 88.7287 43.9701 88.5492 44.156C88.3697 44.3419 88.1543 44.4304 87.903 44.4304H81.782ZM93.7546 44.0585C94.0059 44.3064 94.3111 44.4304 94.6701 44.4304H97.8383C99.0589 44.4304 100.154 44.1825 101.105 43.6867C102.056 43.1909 102.801 42.4915 103.322 41.5973C103.851 40.7031 104.112 39.6761 104.112 38.534C104.112 37.3831 103.851 36.3649 103.322 35.4708C102.792 34.5766 102.056 33.8771 101.105 33.3725C100.154 32.8679 99.0589 32.62 97.8383 32.62H94.6701C94.3111 32.62 94.0059 32.7439 93.7546 32.9918C93.5033 33.2397 93.3777 33.5407 93.3777 33.886V43.1555C93.3687 43.5096 93.4943 43.8018 93.7546 44.0585ZM97.8471 34.4792H95.5136H95.5046V42.5712H97.8381C99.0946 42.5712 100.082 42.1816 100.818 41.4114C101.554 40.6411 101.922 39.685 101.922 38.534C101.922 37.7726 101.769 37.0821 101.464 36.48C101.159 35.878 100.701 35.3911 100.073 35.0281C99.4447 34.6651 98.7087 34.4792 97.8471 34.4792Z" fill="#121214"></path><path fill-rule="evenodd" clip-rule="evenodd" d="M135.972 43.9035C135.029 43.4106 134.265 42.6888 133.699 41.7558C133.133 40.8228 132.846 39.7577 132.846 38.5606C132.846 37.654 133.007 36.8266 133.34 36.0608C133.672 35.295 134.121 34.6524 134.687 34.1331C135.253 33.6138 135.918 33.2089 136.691 32.9184C137.463 32.6279 138.272 32.4783 139.134 32.4783C140.841 32.4783 142.243 33.0328 143.339 34.1507C143.519 34.3268 143.609 34.5468 143.609 34.8197C143.609 35.0837 143.501 35.3038 143.303 35.4886C143.096 35.6735 142.863 35.7703 142.593 35.7703C142.315 35.7703 142.072 35.6735 141.875 35.471C141.506 35.1102 141.084 34.8285 140.608 34.626C140.132 34.4236 139.638 34.3268 139.125 34.3268C137.94 34.3268 136.96 34.7317 136.188 35.5239C135.415 36.3249 135.029 37.3283 135.029 38.5606C135.029 39.7929 135.415 40.8052 136.197 41.6062C136.969 42.4072 137.949 42.8121 139.125 42.8121C139.683 42.8121 140.213 42.7064 140.725 42.4952C141.237 42.2839 141.632 42.0463 141.929 41.7646V39.9602H139.215C138.964 39.9602 138.748 39.8721 138.568 39.6873C138.389 39.5024 138.299 39.2824 138.299 39.0095C138.299 38.7631 138.389 38.5518 138.568 38.3758C138.748 38.1997 138.964 38.1117 139.215 38.1117H142.773C143.132 38.1117 143.438 38.2349 143.689 38.4814C143.941 38.7279 144.067 39.0271 144.067 39.3704V41.5005C144.067 41.9759 143.914 42.4248 143.618 42.8297C143.321 43.2346 142.935 43.5691 142.459 43.8331C141.982 44.0972 141.452 44.2996 140.877 44.4405C140.302 44.5813 139.718 44.6517 139.134 44.6517C137.976 44.6517 136.924 44.4053 135.972 43.9035ZM109.055 44.0532C109.307 44.2996 109.612 44.4229 109.972 44.4229H115.254C115.506 44.4229 115.722 44.3348 115.91 44.15C116.099 43.9651 116.189 43.7363 116.189 43.4722C116.189 43.2258 116.099 43.0145 115.91 42.8385C115.722 42.6624 115.506 42.5744 115.254 42.5744H110.816V33.5962C110.816 33.3233 110.709 33.0945 110.502 32.8832C110.295 32.6808 110.044 32.5751 109.756 32.5751C109.451 32.5751 109.199 32.6719 108.993 32.8744C108.786 33.0768 108.678 33.3145 108.678 33.5874V43.1553C108.669 43.5074 108.795 43.7979 109.055 44.0532ZM120.87 44.0532C121.121 44.2996 121.427 44.4229 121.786 44.4229H127.913C128.165 44.4229 128.38 44.3348 128.56 44.15C128.74 43.9651 128.829 43.7363 128.829 43.4722C128.829 43.2258 128.74 43.0145 128.56 42.8385C128.38 42.6624 128.165 42.5744 127.913 42.5744H122.63V39.3704H127.787C128.039 39.3704 128.254 39.2824 128.434 39.1063C128.614 38.9303 128.704 38.7102 128.704 38.4638C128.704 38.1997 128.614 37.9797 128.434 37.7948C128.254 37.61 128.039 37.5219 127.787 37.5219H122.63V34.5292H127.913C128.165 34.5292 128.38 34.4412 128.56 34.2651C128.74 34.0891 128.829 33.869 128.829 33.6226C128.829 33.3673 128.74 33.1473 128.56 32.9624C128.38 32.7776 128.165 32.6895 127.913 32.6895H121.786C121.427 32.6895 121.121 32.8128 120.87 33.0592C120.618 33.3057 120.492 33.605 120.492 33.9483V43.1641C120.483 43.5074 120.609 43.7979 120.87 44.0532ZM148.307 44.1852C148.523 44.414 148.801 44.5197 149.134 44.5197C149.358 44.5197 149.574 44.4581 149.772 44.326C149.969 44.2028 150.104 44.0356 150.176 43.8243L150.823 42.1783H156.276L156.905 43.8243C156.995 44.0356 157.13 44.2028 157.318 44.326C157.507 44.4493 157.714 44.5197 157.947 44.5197C158.28 44.5197 158.558 44.4052 158.774 44.1676C158.989 43.9299 159.097 43.6747 159.097 43.3842C159.097 43.2874 159.07 43.1553 159.025 42.9969L155.27 33.6754C155.126 33.3233 154.884 33.0504 154.551 32.8392C154.237 32.6543 153.913 32.5663 153.563 32.5663H153.473C153.105 32.5663 152.772 32.6631 152.467 32.8656C152.161 33.068 151.946 33.3321 151.811 33.6754L148.074 42.9969C148.011 43.1025 147.975 43.2346 147.975 43.3842C147.984 43.7011 148.092 43.9651 148.307 44.1852ZM155.674 40.3387L153.554 34.7933L151.407 40.3387H155.674ZM163.778 44.0532C164.029 44.2996 164.335 44.4229 164.694 44.4229H169.977C170.228 44.4229 170.444 44.3348 170.633 44.15C170.821 43.9651 170.911 43.7363 170.911 43.4722C170.911 43.2258 170.821 43.0145 170.633 42.8385C170.444 42.6624 170.228 42.5744 169.977 42.5744H165.539V33.5962C165.539 33.3233 165.431 33.0945 165.224 32.8832C165.018 32.6808 164.766 32.5751 164.479 32.5751C164.173 32.5751 163.922 32.6719 163.715 32.8744C163.508 33.0768 163.401 33.3145 163.401 33.5874V43.1553C163.401 43.5074 163.526 43.7979 163.778 44.0532ZM176.751 44.238C175.915 43.9652 175.313 43.5955 174.918 43.1378C174.774 42.9529 174.693 42.7681 174.711 42.592C174.711 42.3191 174.819 42.0903 175.026 41.8878C175.233 41.6854 175.466 41.5886 175.736 41.5886C175.951 41.5886 176.14 41.6502 176.302 41.7734C177.245 42.4776 178.287 42.8297 179.446 42.8297C180.228 42.8297 180.821 42.6712 181.216 42.3544C181.611 42.0375 181.809 41.6678 181.809 41.2365C181.809 40.9724 181.728 40.7524 181.575 40.5587C181.423 40.3651 181.207 40.2066 180.937 40.0834C180.668 39.9602 180.353 39.8545 180.003 39.7577C179.811 39.7046 179.613 39.6515 179.41 39.5969C179.243 39.552 179.072 39.5061 178.898 39.4584C178.705 39.4056 178.514 39.355 178.323 39.3044C178.132 39.2538 177.941 39.2032 177.748 39.1504C177.362 39.0447 176.993 38.9039 176.643 38.7279C176.284 38.5518 175.978 38.3406 175.709 38.1117C175.439 37.8828 175.224 37.5836 175.071 37.2227C174.918 36.8618 174.837 36.4481 174.837 35.9816C174.837 34.9957 175.242 34.1683 176.05 33.517C176.859 32.8656 177.91 32.5399 179.212 32.5399C179.985 32.5399 180.749 32.6544 181.521 32.8832C182.294 33.1121 182.86 33.4201 183.237 33.825C183.372 33.9747 183.444 34.1683 183.444 34.3884C183.444 34.6524 183.336 34.8813 183.13 35.0661C182.923 35.251 182.68 35.3478 182.411 35.3478C182.195 35.3478 182.007 35.2862 181.836 35.1718C181.009 34.6436 180.084 34.3796 179.033 34.3796C178.422 34.3796 177.937 34.5116 177.577 34.7757C177.209 35.0397 177.029 35.383 177.029 35.8143C177.029 36.0432 177.101 36.2368 177.263 36.4129C177.416 36.5801 177.631 36.721 177.901 36.8354C178.17 36.941 178.476 37.0466 178.826 37.1435C178.978 37.1853 179.133 37.2272 179.29 37.2698C179.497 37.3257 179.708 37.3828 179.922 37.4427C180.3 37.5484 180.686 37.654 181.072 37.7596C181.459 37.8652 181.827 38.0061 182.177 38.1909C182.528 38.3758 182.842 38.587 183.112 38.8247C183.381 39.0623 183.597 39.3704 183.758 39.7401C183.92 40.1098 184.001 40.5323 184.001 40.9988C184.001 41.5005 183.911 41.9759 183.723 42.3984C183.534 42.8209 183.264 43.2082 182.896 43.5515C182.528 43.8947 182.042 44.1588 181.441 44.3525C180.839 44.5461 180.138 44.6429 179.356 44.6429C178.449 44.6429 177.577 44.5109 176.751 44.238Z" fill="#121214"></path></svg> 