<?xml version="1.0" encoding="UTF-8"?> <svg xmlns="http://www.w3.org/2000/svg" width="218" height="77" viewBox="0 0 218 77" fill="none"><path d="M76.9688 28.4458C74.97 26.4324 73.2673 26.4324 71.2684 28.4458L59.2754 40.5261L60.9781 42.2412C62.977 44.2546 64.6797 44.2546 66.6785 42.2412L78.6716 30.1609L76.9688 28.4458Z" fill="#121214"></path><path d="M79.8203 31.3169L73.2685 37.9536C71.7138 39.5196 71.7138 41.5702 72.9724 42.8379C74.2309 44.1056 76.2668 44.1429 77.8214 42.5397L81.523 38.8112C83.5218 36.7978 83.5218 35.0454 81.523 33.032L79.8203 31.3169Z" fill="#121214"></path><path d="M64.977 27.8867C63.7185 26.619 61.7196 26.5817 60.128 28.1477L56.4264 31.8762C54.4646 33.8895 54.4646 35.6419 56.4264 37.6553L58.1291 39.3704L64.6809 32.771C66.2726 31.1677 66.2355 29.1544 64.977 27.8867Z" fill="#121214"></path><path d="M112.32 31.317H108.359L103.88 35.7166V26.209H100.66V44.0685H103.88V39.6316L105.398 38.1029L109.174 44.0685H112.801L107.656 35.9031L112.32 31.317Z" fill="#121214"></path><path d="M124.904 31.3169H121.646V38.1027C121.646 39.1094 121.35 39.967 120.795 40.6754C120.203 41.3465 119.5 41.7194 118.574 41.7194C117.834 41.7194 117.279 41.4584 116.945 40.9364C116.575 40.4144 116.427 39.6314 116.427 38.5502V31.3169H113.17V38.5129C113.17 40.4144 113.54 41.8685 114.28 42.8379C115.021 43.8073 116.131 44.3293 117.575 44.3293C118.537 44.3293 119.389 44.1056 120.129 43.6582C120.869 43.2108 121.424 42.6142 121.72 41.8312H121.758C121.758 42.5769 121.869 43.3226 121.98 44.0683H125.052C124.904 42.7634 124.867 41.6821 124.867 40.8245V31.3169H124.904Z" fill="#121214"></path><path d="M133.9 31.0559C133.086 31.0559 132.309 31.2423 131.642 31.5779C130.976 31.9135 130.421 32.3982 130.014 32.9947H129.977C129.977 32.3982 129.94 31.8389 129.903 31.3169H126.867C126.941 32.2117 126.978 33.3303 126.978 34.7098V49.1764H130.236V42.7634H130.31C130.606 43.2481 131.087 43.621 131.716 43.9192C132.346 44.1802 133.049 44.3294 133.863 44.3294C135.529 44.3294 136.825 43.7328 137.75 42.577C138.675 41.4211 139.157 39.7806 139.157 37.7299C139.157 35.6792 138.675 34.0387 137.75 32.8456C136.788 31.6525 135.492 31.0559 133.9 31.0559ZM135.159 40.7873C134.678 41.533 134.011 41.9058 133.123 41.9058C132.309 41.9058 131.605 41.6448 131.05 41.0856C130.495 40.5263 130.199 39.8552 130.199 39.0349V36.4249C130.199 35.5674 130.458 34.8963 131.013 34.3743C131.568 33.8523 132.272 33.5913 133.16 33.5913C134.974 33.5913 135.862 34.9335 135.862 37.6554C135.862 38.9603 135.603 40.0416 135.159 40.7873Z" fill="#121214"></path><path d="M146.929 30.9067C144.893 30.9067 143.301 31.5033 142.154 32.6591C141.006 33.815 140.414 35.4555 140.414 37.5435C140.414 39.6314 140.969 41.2347 142.154 42.4278C143.301 43.5836 144.893 44.1802 146.929 44.1802C148.965 44.1802 150.556 43.5836 151.741 42.4278C152.888 41.272 153.481 39.6314 153.481 37.5435C153.481 35.4555 152.888 33.8523 151.741 32.6591C150.593 31.5033 148.965 30.9067 146.929 30.9067ZM149.372 40.6381C148.78 41.3838 147.965 41.7567 146.929 41.7567C145.892 41.7567 145.078 41.3838 144.523 40.6381C143.931 39.8924 143.634 38.8484 143.634 37.5435C143.634 36.2385 143.931 35.1945 144.523 34.4488C145.115 33.7031 145.892 33.3303 146.929 33.3303C147.965 33.3303 148.78 33.7031 149.372 34.4488C149.964 35.1945 150.26 36.2385 150.26 37.5435C150.26 38.8484 149.964 39.8924 149.372 40.6381Z" fill="#121214"></path><path d="M97.5134 35.269C96.8842 34.747 96.0328 34.2623 94.9594 33.7403C94.5522 33.5538 94.182 33.3674 93.8489 33.181C93.2937 32.8827 92.8125 32.659 92.4793 32.4353C91.9241 32.0997 91.5539 31.8015 91.3318 31.5405C91.1098 31.2795 90.9987 30.9812 90.9987 30.6083C90.9987 30.0491 91.2208 29.6016 91.628 29.3034C92.0351 29.0051 92.6644 28.8559 93.4417 28.8559C94.6632 28.8559 95.6997 29.3779 96.551 30.4219L98.6239 28.3339C98.1797 27.6255 97.5134 27.0663 96.6621 26.6561C95.6627 26.1714 94.5522 25.9104 93.2567 25.9104C92.1092 25.9104 91.0727 26.0968 90.1844 26.507C89.296 26.8798 88.5927 27.4391 88.1115 28.1475C87.6303 28.8559 87.3712 29.6762 87.3712 30.6083C87.3712 31.4659 87.5563 32.2116 87.8894 32.8454C88.2225 33.4793 88.7778 34.0758 89.4811 34.6351C89.9623 34.9707 90.5545 35.3435 91.2208 35.7537C91.591 35.9774 91.9981 36.1638 92.4423 36.3875C93.4047 36.8722 94.108 37.2451 94.5152 37.5061C94.9224 37.8043 95.2185 38.0653 95.3665 38.3263C95.5146 38.5873 95.5886 38.9602 95.5886 39.3703C95.5886 39.9669 95.3665 40.4143 94.8853 40.7871C94.4041 41.16 93.7749 41.3091 92.9975 41.3091C92.2943 41.3091 91.5539 41.0854 90.7766 40.6753C89.9993 40.2651 89.296 39.7059 88.7408 39.0347L86.6309 41.0854C87.2972 42.0921 88.1855 42.8751 89.259 43.4344C90.3324 43.9936 91.5169 44.2546 92.8495 44.2546C94.108 44.2546 95.2185 44.0309 96.1809 43.6208C97.1433 43.2107 97.8836 42.6141 98.3648 41.8311C98.883 41.0481 99.1421 40.1533 99.1421 39.1466C99.1421 38.289 98.9941 37.5433 98.735 36.9095C98.5499 36.3502 98.1057 35.7537 97.5134 35.269Z" fill="#121214"></path><path d="M163.697 38.6245C163.475 38.1771 163.068 37.8042 162.549 37.4314C162.031 37.0958 161.291 36.7229 160.365 36.3501C160.328 36.3128 160.254 36.3128 160.217 36.2755C160.18 36.2755 160.143 36.2382 160.106 36.2382C160.032 36.2009 159.958 36.1637 159.847 36.1264C159.773 36.0891 159.699 36.0518 159.625 36.0518C159.551 36.0145 159.477 35.9772 159.44 35.9772C159.44 35.9772 159.44 35.9772 159.403 35.9772C159.329 35.94 159.292 35.94 159.218 35.9027H159.181C159.144 35.8654 159.07 35.8654 159.033 35.8281C158.996 35.8281 158.996 35.8281 158.959 35.7908C158.922 35.7908 158.885 35.7535 158.848 35.7535C158.811 35.7535 158.811 35.7162 158.774 35.7162C158.737 35.7162 158.737 35.679 158.7 35.679C158.663 35.6417 158.626 35.6417 158.552 35.6044C158.219 35.418 157.996 35.2688 157.885 35.1197C157.774 34.9705 157.7 34.7841 157.7 34.5231C157.7 34.1876 157.848 33.9266 158.108 33.7401C158.404 33.5537 158.774 33.4791 159.292 33.4791C160.291 33.4791 161.106 33.852 161.698 34.5604L163.364 32.8826C162.92 32.3233 162.364 31.9132 161.735 31.5776C160.958 31.2048 160.106 31.0183 159.181 31.0183C157.774 31.0183 156.627 31.3539 155.776 31.9877C154.924 32.6216 154.48 33.4791 154.48 34.5231C154.48 35.418 154.776 36.1637 155.405 36.7975C155.479 36.8721 155.553 36.9466 155.627 36.9839C155.665 37.0212 155.702 37.0212 155.739 37.0585C155.776 37.0958 155.85 37.1331 155.887 37.1704C155.924 37.2076 155.961 37.2449 156.035 37.2822C156.072 37.3195 156.146 37.3568 156.183 37.3941C156.22 37.4314 156.294 37.4686 156.331 37.5059C156.368 37.5432 156.442 37.5805 156.479 37.5805C156.553 37.6178 156.59 37.6551 156.664 37.6923C156.701 37.7296 156.775 37.7296 156.812 37.7669C156.886 37.8042 156.96 37.8415 157.034 37.8788C157.071 37.9161 157.145 37.9161 157.182 37.9533C157.256 37.9906 157.33 38.0279 157.441 38.0652C157.478 38.1025 157.552 38.1025 157.589 38.1398C157.663 38.1771 157.774 38.2143 157.848 38.2516C157.885 38.2516 157.885 38.2889 157.922 38.2889C157.996 38.3262 158.108 38.3635 158.182 38.4008C158.33 38.4753 158.478 38.5126 158.626 38.5872C159.514 38.9228 160.069 39.221 160.365 39.4075C160.625 39.6312 160.773 39.8922 160.773 40.265C160.773 40.7124 160.588 41.0853 160.217 41.3836C159.847 41.6818 159.366 41.831 158.811 41.831C158.33 41.831 157.848 41.7191 157.367 41.4581C156.886 41.1971 156.516 40.8616 156.22 40.4514L154.443 42.2411C154.776 42.8004 155.294 43.2478 155.998 43.6207C156.849 44.0681 157.811 44.2918 158.885 44.2918C159.884 44.2918 160.81 44.1054 161.55 43.7698C162.327 43.4342 162.92 42.9495 163.364 42.3157C163.808 41.6818 163.993 40.9734 163.993 40.1532C164.03 39.5566 163.919 39.0346 163.697 38.6245Z" fill="#121214"></path></svg> 