<?xml version="1.0" encoding="UTF-8"?> <svg xmlns="http://www.w3.org/2000/svg" width="219" height="77" viewBox="0 0 219 77" fill="none"><path fill-rule="evenodd" clip-rule="evenodd" d="M113.975 43.8741H115.931V35.5312H113.975V43.8741ZM113.975 34.2642H115.931V32.1948H113.975V34.2642Z" fill="black"></path><path fill-rule="evenodd" clip-rule="evenodd" d="M105.17 32.1948H107.276V41.9718H112.018V43.8741H105.17V32.1948Z" fill="black"></path><path fill-rule="evenodd" clip-rule="evenodd" d="M125.569 36.7652C126.096 37.4415 126.358 38.3525 126.358 39.4971V44.0598H124.321V39.6606C124.321 38.8966 124.192 38.333 123.934 37.9672C123.677 37.6021 123.263 37.4201 122.694 37.4201C122.068 37.4201 121.552 37.6537 121.147 38.1228V44.0598H119.109V35.8823H121.016L121.048 36.4547C121.739 35.9856 122.474 35.752 123.251 35.752C124.272 35.752 125.044 36.0906 125.569 36.7652Z" fill="black"></path><path fill-rule="evenodd" clip-rule="evenodd" d="M128.979 32.6116H131.017V39.2357L133.565 35.8818H135.866L132.874 39.8079L135.932 44.0602H133.63L131.017 40.4289V44.0602H128.979V32.6116Z" fill="black"></path><path fill-rule="evenodd" clip-rule="evenodd" d="M141.855 38.3352C142.577 38.3352 143.117 38.1717 143.475 37.8447C143.831 37.5176 144.008 37.0164 144.008 36.34C144.008 35.6635 143.828 35.1652 143.464 34.844C143.104 34.5219 142.55 34.3604 141.804 34.3604H140.062V38.3352H141.855ZM137.959 32.6113H142.052C144.781 32.6113 146.146 33.8435 146.146 36.3069C146.146 37.5829 145.8 38.5318 145.11 39.1527C144.42 39.7747 143.416 40.0852 142.101 40.0852H140.062V44.06H137.959V32.6113Z" fill="black"></path><path fill-rule="evenodd" clip-rule="evenodd" d="M152.962 41.8518C153.342 41.3837 153.53 40.7618 153.53 39.9871C153.53 39.2017 153.342 38.5729 152.962 38.098C152.583 37.624 152.061 37.3865 151.393 37.3865C150.725 37.3865 150.2 37.624 149.822 38.098C149.444 38.5729 149.255 39.2017 149.255 39.9871C149.255 40.7618 149.444 41.3837 149.822 41.8518C150.2 42.32 150.725 42.5556 151.393 42.5556C152.061 42.5556 152.583 42.32 152.962 41.8518ZM149.141 43.6504C148.504 43.2699 148.016 42.757 147.678 42.1146C147.337 41.4703 147.168 40.7618 147.168 39.9871C147.168 39.2133 147.337 38.4999 147.678 37.8449C148.016 37.1899 148.504 36.6721 149.141 36.2915C149.775 35.909 150.527 35.7173 151.393 35.7173C152.258 35.7173 153.009 35.909 153.644 36.2915C154.281 36.6721 154.768 37.1899 155.107 37.8449C155.448 38.4999 155.618 39.2133 155.618 39.9871C155.618 40.7618 155.448 41.4703 155.107 42.1146C154.768 42.757 154.281 43.2699 153.644 43.6504C153.009 44.032 152.258 44.2247 151.393 44.2247C150.527 44.2247 149.775 44.032 149.141 43.6504Z" fill="black"></path><path fill-rule="evenodd" clip-rule="evenodd" d="M162.734 41.8518C163.112 41.3837 163.3 40.7618 163.3 39.9871C163.3 39.2017 163.112 38.5729 162.734 38.098C162.355 37.624 161.832 37.3865 161.164 37.3865C160.495 37.3865 159.972 37.624 159.593 38.098C159.215 38.5729 159.026 39.2017 159.026 39.9871C159.026 40.7618 159.215 41.3837 159.593 41.8518C159.972 42.32 160.495 42.5556 161.164 42.5556C161.832 42.5556 162.355 42.32 162.734 41.8518ZM158.912 43.6504C158.275 43.2699 157.787 42.757 157.448 42.1146C157.107 41.4703 156.939 40.7618 156.939 39.9871C156.939 39.2133 157.107 38.4999 157.448 37.8449C157.787 37.1899 158.275 36.6721 158.912 36.2915C159.547 35.909 160.299 35.7173 161.164 35.7173C162.029 35.7173 162.78 35.909 163.415 36.2915C164.052 36.6721 164.539 37.1899 164.878 37.8449C165.219 38.4999 165.388 39.2133 165.388 39.9871C165.388 40.7618 165.219 41.4703 164.878 42.1146C164.539 42.757 164.052 43.2699 163.415 43.6504C162.78 44.032 162.029 44.2247 161.164 44.2247C160.299 44.2247 159.547 44.032 158.912 43.6504Z" fill="black"></path><path fill-rule="evenodd" clip-rule="evenodd" d="M167.188 44.0658H169.225V32.6104H167.188V44.0658Z" fill="black"></path><path fill-rule="evenodd" clip-rule="evenodd" d="M85.485 25.2073L83.2635 26.4878V28.1814L85.485 26.9002L90.0948 29.5381V34.8159L79.3965 40.9395V43.4411L80.8753 44.2883V41.7867L91.5735 35.6617V28.6916L85.485 25.2073Z" fill="black"></path><path fill-rule="evenodd" clip-rule="evenodd" d="M79.3971 53.1869L74.7873 55.8255L70.1775 53.1869V42.241C70.1775 41.4385 69.7405 40.6886 69.0372 40.2863L67.9533 39.6768L66.4609 40.532L68.3019 41.5586C68.5463 41.6984 68.6988 41.9602 68.6988 42.241V54.0341L74.7873 57.5191L80.8765 54.0341V51.4616L79.3971 50.6145V53.1869Z" fill="black"></path><path fill-rule="evenodd" clip-rule="evenodd" d="M59.4787 47.0632V41.7868L64.0865 39.1488L64.0899 39.1508L70.177 35.6618V33.1433L68.6983 32.2961V34.8153L58 40.9396V47.9103L64.0885 51.3954L66.3298 50.0899V48.397L64.0885 49.7018L59.4787 47.0632Z" fill="black"></path><path fill-rule="evenodd" clip-rule="evenodd" d="M70.176 23.4143L74.7857 20.7757L79.3956 23.4143V35.6622L81.6361 36.9089L83.123 36.0578L80.8749 34.8157V22.5671L74.7857 19.0828L68.6973 22.5671V25.0937L70.176 25.9408V23.4143Z" fill="black"></path><path fill-rule="evenodd" clip-rule="evenodd" d="M61.6846 36.0595L59.4787 34.8154V29.5382L64.0878 26.9003L74.7868 33.0239L77.0083 31.7131V30.0195L74.7868 31.3304L64.0878 25.2061L58 28.6918V35.6618L60.199 36.9093L61.6846 36.0595Z" fill="black"></path><path fill-rule="evenodd" clip-rule="evenodd" d="M91.5745 43.5457V40.9503L89.3911 39.6772L87.896 40.5332L90.0951 41.7975V43.5457V47.0631L85.4859 49.7018L74.7877 43.5781L72.5859 44.8607V46.5542L74.7877 45.2717L85.4859 51.3953L91.5363 47.9319L91.5745 47.9204V47.9103V43.5457Z" fill="black"></path></svg> 